<svg xmlns="http://www.w3.org/2000/svg" xmlns:xlink="http://www.w3.org/1999/xlink" width="800" zoomAndPan="magnify" viewBox="0 0 600 599.999999" height="800" preserveAspectRatio="xMidYMid meet" version="1.2"><defs><clipPath id="1ddab47b5e"><path d="M 224 131 L 350.730469 131 L 350.730469 280.824219 L 224 280.824219 Z M 224 131 "/></clipPath></defs><g id="fdb3be5529"><rect x="0" width="600" y="0" height="599.999999" style="fill:#ffffff;fill-opacity:1;stroke:none;"/><rect x="0" width="600" y="0" height="599.999999" style="fill:#ffffff;fill-opacity:1;stroke:none;"/><path style="fill:none;stroke-width:2;stroke-linecap:round;stroke-linejoin:miter;stroke:#000000;stroke-opacity:1;stroke-miterlimit:4;" d="M 0.999339 1.001371 L 587.258918 1.001371 " transform="matrix(0.749681,0,0,0.749681,73.071127,381.425073)"/><path style="fill:none;stroke-width:2;stroke-linecap:round;stroke-linejoin:miter;stroke:#000000;stroke-opacity:1;stroke-miterlimit:4;" d="M 0.999339 0.997901 L 587.258918 0.997901 " transform="matrix(0.749681,0,0,0.749681,73.071127,298.36908)"/><g clip-rule="nonzero" clip-path="url(#1ddab47b5e)"><path style=" stroke:none;fill-rule:nonzero;fill:#000000;fill-opacity:1;" d="M 279.046875 280.734375 L 278.59375 280.734375 C 278.59375 280.507812 279.609375 259.105469 269.207031 255.144531 C 264.234375 253.21875 258.242188 254.691406 253.039062 255.9375 C 247.046875 257.292969 241.394531 258.652344 238.339844 254.917969 C 236.644531 252.878906 237.324219 250.273438 238 247.558594 C 238.566406 245.632812 239.132812 243.59375 238.90625 241.328125 C 238.679688 237.933594 237.886719 237.820312 236.871094 237.59375 C 236.304688 237.480469 235.628906 237.367188 234.949219 236.6875 C 234.496094 236.347656 234.382812 235.894531 234.382812 235.328125 C 234.382812 233.855469 236.078125 232.269531 236.757812 231.589844 C 235.851562 231.136719 233.253906 229.890625 231.78125 228.648438 C 230.652344 227.628906 231.667969 226.042969 232.800781 224.230469 C 233.59375 222.984375 234.382812 221.738281 234.496094 220.71875 C 234.609375 219.589844 232.347656 219.136719 230.085938 218.570312 C 227.484375 218.003906 224.886719 217.324219 224.433594 215.738281 C 223.980469 214.039062 224.886719 213.132812 227.035156 210.871094 C 229.070312 208.71875 232.121094 205.546875 236.417969 199.433594 C 240.375 193.769531 239.585938 189.695312 238.566406 184.484375 C 237.324219 178.371094 235.851562 170.785156 242.296875 157.988281 C 248.175781 146.894531 263.441406 137.042969 281.53125 132.964844 C 300.980469 128.664062 319.183594 131.605469 331.285156 141.003906 C 343.832031 150.855469 350.730469 165.804688 350.050781 182.222656 C 349.601562 194.335938 344.964844 204.980469 338.292969 209.285156 C 335.804688 210.871094 332.300781 211.773438 328.230469 212.113281 C 327.324219 218.230469 326.308594 224.003906 325.402344 229.441406 C 325.0625 231.363281 324.726562 233.289062 324.386719 235.101562 C 320.429688 258.3125 330.492188 264.769531 330.492188 264.769531 L 330.265625 265.222656 C 330.152344 265.109375 319.863281 258.539062 323.933594 235.101562 C 324.273438 233.289062 324.613281 231.363281 324.953125 229.441406 C 325.855469 224.117188 326.875 218.230469 327.777344 212.339844 C 313.757812 213.132812 293.519531 207.132812 286.28125 199.546875 C 283.230469 196.375 282.777344 193.203125 284.8125 190.261719 C 287.300781 186.75 290.578125 184.710938 294.308594 184.144531 C 301.433594 183.015625 308.667969 187.65625 310.480469 188.789062 C 309.574219 176.445312 313.417969 164.558594 319.183594 162.292969 C 320.992188 161.613281 323.707031 161.613281 326.875 165.464844 C 332.867188 173.050781 331.171875 192.753906 328.230469 211.773438 C 332.1875 211.433594 335.578125 210.644531 337.953125 209.058594 C 344.511719 204.753906 349.035156 194.222656 349.488281 182.335938 C 350.164062 166.027344 343.382812 151.195312 330.945312 141.457031 C 318.957031 132.058594 300.980469 129.117188 281.644531 133.417969 C 263.78125 137.382812 248.515625 147.234375 242.863281 158.328125 C 236.417969 171.011719 237.886719 178.484375 239.132812 184.484375 C 240.148438 189.582031 241.054688 193.996094 236.984375 199.773438 C 232.6875 205.886719 229.632812 209.058594 227.597656 211.210938 C 225.449219 213.359375 224.773438 214.265625 225.113281 215.625 C 225.449219 216.984375 228.050781 217.550781 230.3125 218.117188 C 232.800781 218.683594 235.175781 219.25 235.0625 220.71875 C 234.949219 221.851562 234.15625 223.210938 233.367188 224.457031 C 232.347656 226.042969 231.445312 227.515625 232.234375 228.308594 C 233.816406 229.777344 237.324219 231.363281 237.324219 231.363281 L 237.664062 231.476562 L 237.324219 231.703125 C 237.324219 231.703125 234.835938 233.742188 234.835938 235.328125 C 234.835938 235.667969 234.949219 236.007812 235.289062 236.347656 C 235.851562 236.914062 236.417969 237.027344 236.984375 237.140625 C 238.339844 237.367188 239.132812 237.820312 239.359375 241.214844 C 239.585938 243.480469 238.90625 245.632812 238.453125 247.558594 C 237.664062 250.273438 237.097656 252.652344 238.679688 254.578125 C 241.621094 258.085938 246.820312 256.839844 252.925781 255.371094 C 258.242188 254.125 264.234375 252.652344 269.433594 254.691406 C 280.0625 258.765625 279.046875 279.828125 279.046875 280.734375 Z M 296.683594 184.484375 C 296.003906 184.484375 295.214844 184.484375 294.535156 184.597656 C 290.804688 185.164062 287.75 187.203125 285.265625 190.601562 C 283.34375 193.316406 283.792969 196.261719 286.621094 199.320312 C 293.746094 206.792969 313.984375 212.792969 327.890625 211.886719 C 330.832031 192.980469 332.527344 173.277344 326.648438 165.804688 C 324.386719 162.859375 321.898438 161.839844 319.523438 162.859375 C 313.984375 165.011719 310.140625 177.125 311.15625 189.355469 L 311.15625 189.921875 L 310.703125 189.582031 C 310.703125 189.46875 303.921875 184.484375 296.683594 184.484375 Z M 296.683594 184.484375 "/></g><g style="fill:#000000;fill-opacity:1;"><g transform="translate(83.74859, 355.651892)"><path style="stroke:none" d="M 10.90625 -30.609375 C 12.15625 -30.609375 13.140625 -30.472656 13.859375 -30.203125 C 14.578125 -29.941406 15.320312 -29.550781 16.09375 -29.03125 C 16.71875 -28.632812 17.203125 -28.4375 17.546875 -28.4375 C 17.796875 -28.4375 17.988281 -28.585938 18.125 -28.890625 C 18.269531 -29.191406 18.390625 -29.664062 18.484375 -30.3125 L 19.453125 -30.3125 C 19.316406 -28.664062 19.25 -25.769531 19.25 -21.625 L 18.265625 -21.625 C 18.097656 -23.925781 17.4375 -25.863281 16.28125 -27.4375 C 15.132812 -29.019531 13.46875 -29.8125 11.28125 -29.8125 C 9.75 -29.8125 8.5 -29.347656 7.53125 -28.421875 C 6.570312 -27.492188 6.09375 -26.304688 6.09375 -24.859375 C 6.09375 -23.785156 6.335938 -22.847656 6.828125 -22.046875 C 7.328125 -21.253906 7.957031 -20.570312 8.71875 -20 C 9.488281 -19.4375 10.582031 -18.71875 12 -17.84375 L 13.234375 -17.078125 C 15.023438 -15.960938 16.4375 -14.988281 17.46875 -14.15625 C 18.507812 -13.320312 19.34375 -12.363281 19.96875 -11.28125 C 20.59375 -10.207031 20.90625 -8.945312 20.90625 -7.5 C 20.90625 -4.914062 20.050781 -2.921875 18.34375 -1.515625 C 16.644531 -0.109375 14.488281 0.59375 11.875 0.59375 C 10.507812 0.59375 9.394531 0.453125 8.53125 0.171875 C 7.664062 -0.109375 6.835938 -0.492188 6.046875 -0.984375 C 5.421875 -1.378906 4.9375 -1.578125 4.59375 -1.578125 C 4.34375 -1.578125 4.144531 -1.425781 4 -1.125 C 3.863281 -0.832031 3.75 -0.359375 3.65625 0.296875 L 2.6875 0.296875 C 2.800781 -1.265625 2.859375 -4.671875 2.859375 -9.921875 L 3.828125 -9.921875 C 4.023438 -7.054688 4.734375 -4.726562 5.953125 -2.9375 C 7.179688 -1.144531 9.054688 -0.25 11.578125 -0.25 C 13.109375 -0.25 14.410156 -0.722656 15.484375 -1.671875 C 16.566406 -2.628906 17.109375 -4.046875 17.109375 -5.921875 C 17.109375 -7.503906 16.578125 -8.847656 15.515625 -9.953125 C 14.453125 -11.066406 12.769531 -12.316406 10.46875 -13.703125 C 8.800781 -14.734375 7.445312 -15.644531 6.40625 -16.4375 C 5.375 -17.226562 4.53125 -18.179688 3.875 -19.296875 C 3.21875 -20.421875 2.890625 -21.738281 2.890625 -23.25 C 2.890625 -25.632812 3.65625 -27.457031 5.1875 -28.71875 C 6.726562 -29.976562 8.632812 -30.609375 10.90625 -30.609375 Z M 10.90625 -30.609375 "/></g></g><g style="fill:#000000;fill-opacity:1;"><g transform="translate(110.998893, 355.651892)"><path style="stroke:none" d="M 24.140625 -3.578125 C 24.816406 -1.816406 25.796875 -0.910156 27.078125 -0.859375 L 27.078125 0 C 25.941406 -0.0820312 24.425781 -0.125 22.53125 -0.125 C 20.082031 -0.125 18.265625 -0.0820312 17.078125 0 L 17.078125 -0.859375 C 18.148438 -0.910156 18.921875 -1.039062 19.390625 -1.25 C 19.859375 -1.46875 20.09375 -1.859375 20.09375 -2.421875 C 20.09375 -2.910156 19.925781 -3.578125 19.59375 -4.421875 L 16.984375 -11.40625 L 6.6875 -11.40625 L 4.9375 -6.890625 C 4.375 -5.359375 4.09375 -4.195312 4.09375 -3.40625 C 4.09375 -2.53125 4.394531 -1.890625 5 -1.484375 C 5.613281 -1.085938 6.546875 -0.878906 7.796875 -0.859375 L 7.796875 0 C 6.171875 -0.0820312 4.535156 -0.125 2.890625 -0.125 C 1.617188 -0.125 0.554688 -0.0820312 -0.296875 0 L -0.296875 -0.859375 C 1.117188 -1.191406 2.238281 -2.425781 3.0625 -4.5625 L 13.078125 -30.359375 L 13.75 -30.359375 Z M 16.640625 -12.265625 L 11.875 -25 L 7.03125 -12.265625 Z M 16.640625 -12.265625 "/></g></g><g style="fill:#000000;fill-opacity:1;"><g transform="translate(142.081052, 355.651892)"><path style="stroke:none" d="M 35.296875 -29.296875 C 34.273438 -29.234375 33.53125 -29.117188 33.0625 -28.953125 C 32.59375 -28.785156 32.269531 -28.457031 32.09375 -27.96875 C 31.925781 -27.488281 31.84375 -26.707031 31.84375 -25.625 L 31.84375 -4.515625 C 31.84375 -3.429688 31.925781 -2.648438 32.09375 -2.171875 C 32.269531 -1.691406 32.59375 -1.363281 33.0625 -1.1875 C 33.53125 -1.019531 34.273438 -0.910156 35.296875 -0.859375 L 35.296875 0 C 33.992188 -0.0820312 32.191406 -0.125 29.890625 -0.125 C 27.453125 -0.125 25.632812 -0.0820312 24.4375 0 L 24.4375 -0.859375 C 25.457031 -0.910156 26.203125 -1.019531 26.671875 -1.1875 C 27.140625 -1.363281 27.457031 -1.691406 27.625 -2.171875 C 27.800781 -2.648438 27.890625 -3.429688 27.890625 -4.515625 L 27.890625 -27.328125 L 17.625 0.21875 L 16.953125 0.21875 L 6.21875 -27.421875 L 6.21875 -4.9375 C 6.21875 -3.832031 6.304688 -3.007812 6.484375 -2.46875 C 6.671875 -1.925781 7.035156 -1.535156 7.578125 -1.296875 C 8.117188 -1.054688 8.957031 -0.910156 10.09375 -0.859375 L 10.09375 0 C 9.070312 -0.0820312 7.625 -0.125 5.75 -0.125 C 4.039062 -0.125 2.71875 -0.0820312 1.78125 0 L 1.78125 -0.859375 C 2.78125 -0.910156 3.519531 -1.054688 4 -1.296875 C 4.476562 -1.535156 4.800781 -1.929688 4.96875 -2.484375 C 5.144531 -3.046875 5.234375 -3.863281 5.234375 -4.9375 L 5.234375 -25.625 C 5.234375 -26.707031 5.144531 -27.488281 4.96875 -27.96875 C 4.800781 -28.457031 4.484375 -28.785156 4.015625 -28.953125 C 3.554688 -29.117188 2.8125 -29.234375 1.78125 -29.296875 L 1.78125 -30.140625 C 2.71875 -30.054688 4.039062 -30.015625 5.75 -30.015625 C 7.226562 -30.015625 8.4375 -30.054688 9.375 -30.140625 L 18.734375 -5.5 L 27.890625 -30.015625 L 29.890625 -30.015625 C 32.191406 -30.015625 33.992188 -30.054688 35.296875 -30.140625 Z M 35.296875 -29.296875 "/></g></g><g style="fill:#000000;fill-opacity:1;"><g transform="translate(183.424031, 355.651892)"><path style="stroke:none" d="M 24.140625 -3.578125 C 24.816406 -1.816406 25.796875 -0.910156 27.078125 -0.859375 L 27.078125 0 C 25.941406 -0.0820312 24.425781 -0.125 22.53125 -0.125 C 20.082031 -0.125 18.265625 -0.0820312 17.078125 0 L 17.078125 -0.859375 C 18.148438 -0.910156 18.921875 -1.039062 19.390625 -1.25 C 19.859375 -1.46875 20.09375 -1.859375 20.09375 -2.421875 C 20.09375 -2.910156 19.925781 -3.578125 19.59375 -4.421875 L 16.984375 -11.40625 L 6.6875 -11.40625 L 4.9375 -6.890625 C 4.375 -5.359375 4.09375 -4.195312 4.09375 -3.40625 C 4.09375 -2.53125 4.394531 -1.890625 5 -1.484375 C 5.613281 -1.085938 6.546875 -0.878906 7.796875 -0.859375 L 7.796875 0 C 6.171875 -0.0820312 4.535156 -0.125 2.890625 -0.125 C 1.617188 -0.125 0.554688 -0.0820312 -0.296875 0 L -0.296875 -0.859375 C 1.117188 -1.191406 2.238281 -2.425781 3.0625 -4.5625 L 13.078125 -30.359375 L 13.75 -30.359375 Z M 16.640625 -12.265625 L 11.875 -25 L 7.03125 -12.265625 Z M 16.640625 -12.265625 "/></g></g><g style="fill:#000000;fill-opacity:1;"><g transform="translate(214.50619, 355.651892)"><path style="stroke:none" d="M 28.53125 -29.296875 C 27.53125 -29.234375 26.789062 -29.082031 26.3125 -28.84375 C 25.832031 -28.601562 25.503906 -28.207031 25.328125 -27.65625 C 25.160156 -27.101562 25.078125 -26.285156 25.078125 -25.203125 L 25.078125 0.21875 L 24.09375 0.21875 L 6.21875 -27.421875 L 6.21875 -4.9375 C 6.21875 -3.832031 6.304688 -3.007812 6.484375 -2.46875 C 6.671875 -1.925781 7.035156 -1.535156 7.578125 -1.296875 C 8.117188 -1.054688 8.957031 -0.910156 10.09375 -0.859375 L 10.09375 0 C 9.070312 -0.0820312 7.625 -0.125 5.75 -0.125 C 4.039062 -0.125 2.71875 -0.0820312 1.78125 0 L 1.78125 -0.859375 C 2.78125 -0.910156 3.519531 -1.054688 4 -1.296875 C 4.476562 -1.535156 4.800781 -1.929688 4.96875 -2.484375 C 5.144531 -3.046875 5.234375 -3.863281 5.234375 -4.9375 L 5.234375 -25.625 C 5.234375 -26.707031 5.144531 -27.488281 4.96875 -27.96875 C 4.800781 -28.457031 4.484375 -28.785156 4.015625 -28.953125 C 3.554688 -29.117188 2.8125 -29.234375 1.78125 -29.296875 L 1.78125 -30.140625 C 2.71875 -30.054688 4.039062 -30.015625 5.75 -30.015625 C 7.03125 -30.015625 8.132812 -30.054688 9.0625 -30.140625 L 24.09375 -6.984375 L 24.09375 -25.203125 C 24.09375 -26.304688 24 -27.128906 23.8125 -27.671875 C 23.632812 -28.210938 23.273438 -28.601562 22.734375 -28.84375 C 22.191406 -29.082031 21.351562 -29.234375 20.21875 -29.296875 L 20.21875 -30.140625 C 21.238281 -30.054688 22.6875 -30.015625 24.5625 -30.015625 C 26.269531 -30.015625 27.59375 -30.054688 28.53125 -30.140625 Z M 28.53125 -29.296875 "/></g></g><g style="fill:#000000;fill-opacity:1;"><g transform="translate(248.82412, 355.651892)"><path style="stroke:none" d="M 25.203125 -30.140625 C 25.003906 -28.128906 24.90625 -26.316406 24.90625 -24.703125 C 24.90625 -23.273438 24.945312 -22.109375 25.03125 -21.203125 L 24.0625 -21.203125 C 23.832031 -23.390625 23.546875 -25.015625 23.203125 -26.078125 C 22.859375 -27.140625 22.257812 -27.921875 21.40625 -28.421875 C 20.5625 -28.921875 19.257812 -29.171875 17.5 -29.171875 L 15.203125 -29.171875 L 15.203125 -4.9375 C 15.203125 -3.75 15.3125 -2.882812 15.53125 -2.34375 C 15.757812 -1.800781 16.15625 -1.429688 16.71875 -1.234375 C 17.289062 -1.035156 18.21875 -0.910156 19.5 -0.859375 L 19.5 0 C 18.019531 -0.0820312 15.929688 -0.125 13.234375 -0.125 C 10.398438 -0.125 8.300781 -0.0820312 6.9375 0 L 6.9375 -0.859375 C 8.21875 -0.910156 9.140625 -1.035156 9.703125 -1.234375 C 10.273438 -1.429688 10.671875 -1.800781 10.890625 -2.34375 C 11.117188 -2.882812 11.234375 -3.75 11.234375 -4.9375 L 11.234375 -29.171875 L 8.9375 -29.171875 C 7.175781 -29.171875 5.867188 -28.921875 5.015625 -28.421875 C 4.171875 -27.921875 3.578125 -27.140625 3.234375 -26.078125 C 2.890625 -25.015625 2.609375 -23.390625 2.390625 -21.203125 L 1.40625 -21.203125 C 1.488281 -22.109375 1.53125 -23.273438 1.53125 -24.703125 C 1.53125 -26.316406 1.429688 -28.128906 1.234375 -30.140625 C 3.585938 -30.054688 7.585938 -30.015625 13.234375 -30.015625 C 18.859375 -30.015625 22.847656 -30.054688 25.203125 -30.140625 Z M 25.203125 -30.140625 "/></g></g><g style="fill:#000000;fill-opacity:1;"><g transform="translate(279.523081, 355.651892)"><path style="stroke:none" d="M 30.4375 -29.296875 C 29.414062 -29.234375 28.671875 -29.117188 28.203125 -28.953125 C 27.734375 -28.785156 27.414062 -28.457031 27.25 -27.96875 C 27.082031 -27.488281 27 -26.707031 27 -25.625 L 27 -4.515625 C 27 -3.429688 27.082031 -2.648438 27.25 -2.171875 C 27.414062 -1.691406 27.734375 -1.363281 28.203125 -1.1875 C 28.671875 -1.019531 29.414062 -0.910156 30.4375 -0.859375 L 30.4375 0 C 29.25 -0.0820312 27.4375 -0.125 25 -0.125 C 22.695312 -0.125 20.894531 -0.0820312 19.59375 0 L 19.59375 -0.859375 C 20.613281 -0.910156 21.359375 -1.019531 21.828125 -1.1875 C 22.296875 -1.363281 22.613281 -1.691406 22.78125 -2.171875 C 22.945312 -2.648438 23.03125 -3.429688 23.03125 -4.515625 L 23.03125 -14.734375 L 9.203125 -14.734375 L 9.203125 -4.515625 C 9.203125 -3.429688 9.285156 -2.648438 9.453125 -2.171875 C 9.617188 -1.691406 9.9375 -1.363281 10.40625 -1.1875 C 10.875 -1.019531 11.617188 -0.910156 12.640625 -0.859375 L 12.640625 0 C 11.335938 -0.0820312 9.535156 -0.125 7.234375 -0.125 C 4.796875 -0.125 2.976562 -0.0820312 1.78125 0 L 1.78125 -0.859375 C 2.8125 -0.910156 3.554688 -1.019531 4.015625 -1.1875 C 4.484375 -1.363281 4.800781 -1.691406 4.96875 -2.171875 C 5.144531 -2.648438 5.234375 -3.429688 5.234375 -4.515625 L 5.234375 -25.625 C 5.234375 -26.707031 5.144531 -27.488281 4.96875 -27.96875 C 4.800781 -28.457031 4.484375 -28.785156 4.015625 -28.953125 C 3.554688 -29.117188 2.8125 -29.234375 1.78125 -29.296875 L 1.78125 -30.140625 C 2.976562 -30.054688 4.796875 -30.015625 7.234375 -30.015625 C 9.503906 -30.015625 11.304688 -30.054688 12.640625 -30.140625 L 12.640625 -29.296875 C 11.617188 -29.234375 10.875 -29.117188 10.40625 -28.953125 C 9.9375 -28.785156 9.617188 -28.457031 9.453125 -27.96875 C 9.285156 -27.488281 9.203125 -26.707031 9.203125 -25.625 L 9.203125 -15.578125 L 23.03125 -15.578125 L 23.03125 -25.625 C 23.03125 -26.707031 22.945312 -27.488281 22.78125 -27.96875 C 22.613281 -28.457031 22.296875 -28.785156 21.828125 -28.953125 C 21.359375 -29.117188 20.613281 -29.234375 19.59375 -29.296875 L 19.59375 -30.140625 C 20.894531 -30.054688 22.695312 -30.015625 25 -30.015625 C 27.4375 -30.015625 29.25 -30.054688 30.4375 -30.140625 Z M 30.4375 -29.296875 "/></g></g><g style="fill:#000000;fill-opacity:1;"><g transform="translate(316.012391, 355.651892)"><path style="stroke:none" d="M 24.140625 -3.578125 C 24.816406 -1.816406 25.796875 -0.910156 27.078125 -0.859375 L 27.078125 0 C 25.941406 -0.0820312 24.425781 -0.125 22.53125 -0.125 C 20.082031 -0.125 18.265625 -0.0820312 17.078125 0 L 17.078125 -0.859375 C 18.148438 -0.910156 18.921875 -1.039062 19.390625 -1.25 C 19.859375 -1.46875 20.09375 -1.859375 20.09375 -2.421875 C 20.09375 -2.910156 19.925781 -3.578125 19.59375 -4.421875 L 16.984375 -11.40625 L 6.6875 -11.40625 L 4.9375 -6.890625 C 4.375 -5.359375 4.09375 -4.195312 4.09375 -3.40625 C 4.09375 -2.53125 4.394531 -1.890625 5 -1.484375 C 5.613281 -1.085938 6.546875 -0.878906 7.796875 -0.859375 L 7.796875 0 C 6.171875 -0.0820312 4.535156 -0.125 2.890625 -0.125 C 1.617188 -0.125 0.554688 -0.0820312 -0.296875 0 L -0.296875 -0.859375 C 1.117188 -1.191406 2.238281 -2.425781 3.0625 -4.5625 L 13.078125 -30.359375 L 13.75 -30.359375 Z M 16.640625 -12.265625 L 11.875 -25 L 7.03125 -12.265625 Z M 16.640625 -12.265625 "/></g></g><g style="fill:#000000;fill-opacity:1;"><g transform="translate(347.09455, 355.651892)"><path style="stroke:none" d=""/></g></g><g style="fill:#000000;fill-opacity:1;"><g transform="translate(361.955229, 355.651892)"><path style="stroke:none" d="M 35.296875 -29.296875 C 34.273438 -29.234375 33.53125 -29.117188 33.0625 -28.953125 C 32.59375 -28.785156 32.269531 -28.457031 32.09375 -27.96875 C 31.925781 -27.488281 31.84375 -26.707031 31.84375 -25.625 L 31.84375 -4.515625 C 31.84375 -3.429688 31.925781 -2.648438 32.09375 -2.171875 C 32.269531 -1.691406 32.59375 -1.363281 33.0625 -1.1875 C 33.53125 -1.019531 34.273438 -0.910156 35.296875 -0.859375 L 35.296875 0 C 33.992188 -0.0820312 32.191406 -0.125 29.890625 -0.125 C 27.453125 -0.125 25.632812 -0.0820312 24.4375 0 L 24.4375 -0.859375 C 25.457031 -0.910156 26.203125 -1.019531 26.671875 -1.1875 C 27.140625 -1.363281 27.457031 -1.691406 27.625 -2.171875 C 27.800781 -2.648438 27.890625 -3.429688 27.890625 -4.515625 L 27.890625 -27.328125 L 17.625 0.21875 L 16.953125 0.21875 L 6.21875 -27.421875 L 6.21875 -4.9375 C 6.21875 -3.832031 6.304688 -3.007812 6.484375 -2.46875 C 6.671875 -1.925781 7.035156 -1.535156 7.578125 -1.296875 C 8.117188 -1.054688 8.957031 -0.910156 10.09375 -0.859375 L 10.09375 0 C 9.070312 -0.0820312 7.625 -0.125 5.75 -0.125 C 4.039062 -0.125 2.71875 -0.0820312 1.78125 0 L 1.78125 -0.859375 C 2.78125 -0.910156 3.519531 -1.054688 4 -1.296875 C 4.476562 -1.535156 4.800781 -1.929688 4.96875 -2.484375 C 5.144531 -3.046875 5.234375 -3.863281 5.234375 -4.9375 L 5.234375 -25.625 C 5.234375 -26.707031 5.144531 -27.488281 4.96875 -27.96875 C 4.800781 -28.457031 4.484375 -28.785156 4.015625 -28.953125 C 3.554688 -29.117188 2.8125 -29.234375 1.78125 -29.296875 L 1.78125 -30.140625 C 2.71875 -30.054688 4.039062 -30.015625 5.75 -30.015625 C 7.226562 -30.015625 8.4375 -30.054688 9.375 -30.140625 L 18.734375 -5.5 L 27.890625 -30.015625 L 29.890625 -30.015625 C 32.191406 -30.015625 33.992188 -30.054688 35.296875 -30.140625 Z M 35.296875 -29.296875 "/></g></g><g style="fill:#000000;fill-opacity:1;"><g transform="translate(403.298209, 355.651892)"><path style="stroke:none" d="M 12.640625 -29.296875 C 11.617188 -29.234375 10.875 -29.117188 10.40625 -28.953125 C 9.9375 -28.785156 9.617188 -28.457031 9.453125 -27.96875 C 9.285156 -27.488281 9.203125 -26.707031 9.203125 -25.625 L 9.203125 -4.515625 C 9.203125 -3.429688 9.285156 -2.648438 9.453125 -2.171875 C 9.617188 -1.691406 9.9375 -1.363281 10.40625 -1.1875 C 10.875 -1.019531 11.617188 -0.910156 12.640625 -0.859375 L 12.640625 0 C 11.335938 -0.0820312 9.535156 -0.125 7.234375 -0.125 C 4.796875 -0.125 2.976562 -0.0820312 1.78125 0 L 1.78125 -0.859375 C 2.8125 -0.910156 3.554688 -1.019531 4.015625 -1.1875 C 4.484375 -1.363281 4.800781 -1.691406 4.96875 -2.171875 C 5.144531 -2.648438 5.234375 -3.429688 5.234375 -4.515625 L 5.234375 -25.625 C 5.234375 -26.707031 5.144531 -27.488281 4.96875 -27.96875 C 4.800781 -28.457031 4.484375 -28.785156 4.015625 -28.953125 C 3.554688 -29.117188 2.8125 -29.234375 1.78125 -29.296875 L 1.78125 -30.140625 C 2.976562 -30.054688 4.796875 -30.015625 7.234375 -30.015625 C 9.503906 -30.015625 11.304688 -30.054688 12.640625 -30.140625 Z M 12.640625 -29.296875 "/></g></g><g style="fill:#000000;fill-opacity:1;"><g transform="translate(421.990745, 355.651892)"><path style="stroke:none" d="M 12.640625 -29.296875 C 11.617188 -29.234375 10.875 -29.117188 10.40625 -28.953125 C 9.9375 -28.785156 9.617188 -28.457031 9.453125 -27.96875 C 9.285156 -27.488281 9.203125 -26.707031 9.203125 -25.625 L 9.203125 -4.515625 C 9.203125 -3.429688 9.285156 -2.648438 9.453125 -2.171875 C 9.617188 -1.691406 9.9375 -1.375 10.40625 -1.21875 C 10.875 -1.0625 11.617188 -0.984375 12.640625 -0.984375 L 15.75 -0.984375 C 17.507812 -0.984375 18.847656 -1.226562 19.765625 -1.71875 C 20.691406 -2.21875 21.367188 -3.019531 21.796875 -4.125 C 22.222656 -5.238281 22.535156 -6.84375 22.734375 -8.9375 L 23.71875 -8.9375 C 23.632812 -8.0625 23.59375 -6.898438 23.59375 -5.453125 C 23.59375 -3.828125 23.691406 -2.007812 23.890625 0 C 21.953125 -0.0820312 18.703125 -0.125 14.140625 -0.125 C 8.691406 -0.125 4.570312 -0.0820312 1.78125 0 L 1.78125 -0.859375 C 2.8125 -0.910156 3.554688 -1.019531 4.015625 -1.1875 C 4.484375 -1.363281 4.800781 -1.691406 4.96875 -2.171875 C 5.144531 -2.648438 5.234375 -3.429688 5.234375 -4.515625 L 5.234375 -25.625 C 5.234375 -26.707031 5.144531 -27.488281 4.96875 -27.96875 C 4.800781 -28.457031 4.484375 -28.785156 4.015625 -28.953125 C 3.554688 -29.117188 2.8125 -29.234375 1.78125 -29.296875 L 1.78125 -30.140625 C 2.976562 -30.054688 4.796875 -30.015625 7.234375 -30.015625 C 9.503906 -30.015625 11.304688 -30.054688 12.640625 -30.140625 Z M 12.640625 -29.296875 "/></g></g><g style="fill:#000000;fill-opacity:1;"><g transform="translate(451.284696, 355.651892)"><path style="stroke:none" d="M 12.640625 -29.296875 C 11.617188 -29.234375 10.875 -29.117188 10.40625 -28.953125 C 9.9375 -28.785156 9.617188 -28.457031 9.453125 -27.96875 C 9.285156 -27.488281 9.203125 -26.707031 9.203125 -25.625 L 9.203125 -4.515625 C 9.203125 -3.429688 9.285156 -2.648438 9.453125 -2.171875 C 9.617188 -1.691406 9.9375 -1.375 10.40625 -1.21875 C 10.875 -1.0625 11.617188 -0.984375 12.640625 -0.984375 L 15.75 -0.984375 C 17.507812 -0.984375 18.847656 -1.226562 19.765625 -1.71875 C 20.691406 -2.21875 21.367188 -3.019531 21.796875 -4.125 C 22.222656 -5.238281 22.535156 -6.84375 22.734375 -8.9375 L 23.71875 -8.9375 C 23.632812 -8.0625 23.59375 -6.898438 23.59375 -5.453125 C 23.59375 -3.828125 23.691406 -2.007812 23.890625 0 C 21.953125 -0.0820312 18.703125 -0.125 14.140625 -0.125 C 8.691406 -0.125 4.570312 -0.0820312 1.78125 0 L 1.78125 -0.859375 C 2.8125 -0.910156 3.554688 -1.019531 4.015625 -1.1875 C 4.484375 -1.363281 4.800781 -1.691406 4.96875 -2.171875 C 5.144531 -2.648438 5.234375 -3.429688 5.234375 -4.515625 L 5.234375 -25.625 C 5.234375 -26.707031 5.144531 -27.488281 4.96875 -27.96875 C 4.800781 -28.457031 4.484375 -28.785156 4.015625 -28.953125 C 3.554688 -29.117188 2.8125 -29.234375 1.78125 -29.296875 L 1.78125 -30.140625 C 2.976562 -30.054688 4.796875 -30.015625 7.234375 -30.015625 C 9.503906 -30.015625 11.304688 -30.054688 12.640625 -30.140625 Z M 12.640625 -29.296875 "/></g></g><g style="fill:#000000;fill-opacity:1;"><g transform="translate(480.578647, 355.651892)"><path style="stroke:none" d="M 10.90625 -30.609375 C 12.15625 -30.609375 13.140625 -30.472656 13.859375 -30.203125 C 14.578125 -29.941406 15.320312 -29.550781 16.09375 -29.03125 C 16.71875 -28.632812 17.203125 -28.4375 17.546875 -28.4375 C 17.796875 -28.4375 17.988281 -28.585938 18.125 -28.890625 C 18.269531 -29.191406 18.390625 -29.664062 18.484375 -30.3125 L 19.453125 -30.3125 C 19.316406 -28.664062 19.25 -25.769531 19.25 -21.625 L 18.265625 -21.625 C 18.097656 -23.925781 17.4375 -25.863281 16.28125 -27.4375 C 15.132812 -29.019531 13.46875 -29.8125 11.28125 -29.8125 C 9.75 -29.8125 8.5 -29.347656 7.53125 -28.421875 C 6.570312 -27.492188 6.09375 -26.304688 6.09375 -24.859375 C 6.09375 -23.785156 6.335938 -22.847656 6.828125 -22.046875 C 7.328125 -21.253906 7.957031 -20.570312 8.71875 -20 C 9.488281 -19.4375 10.582031 -18.71875 12 -17.84375 L 13.234375 -17.078125 C 15.023438 -15.960938 16.4375 -14.988281 17.46875 -14.15625 C 18.507812 -13.320312 19.34375 -12.363281 19.96875 -11.28125 C 20.59375 -10.207031 20.90625 -8.945312 20.90625 -7.5 C 20.90625 -4.914062 20.050781 -2.921875 18.34375 -1.515625 C 16.644531 -0.109375 14.488281 0.59375 11.875 0.59375 C 10.507812 0.59375 9.394531 0.453125 8.53125 0.171875 C 7.664062 -0.109375 6.835938 -0.492188 6.046875 -0.984375 C 5.421875 -1.378906 4.9375 -1.578125 4.59375 -1.578125 C 4.34375 -1.578125 4.144531 -1.425781 4 -1.125 C 3.863281 -0.832031 3.75 -0.359375 3.65625 0.296875 L 2.6875 0.296875 C 2.800781 -1.265625 2.859375 -4.671875 2.859375 -9.921875 L 3.828125 -9.921875 C 4.023438 -7.054688 4.734375 -4.726562 5.953125 -2.9375 C 7.179688 -1.144531 9.054688 -0.25 11.578125 -0.25 C 13.109375 -0.25 14.410156 -0.722656 15.484375 -1.671875 C 16.566406 -2.628906 17.109375 -4.046875 17.109375 -5.921875 C 17.109375 -7.503906 16.578125 -8.847656 15.515625 -9.953125 C 14.453125 -11.066406 12.769531 -12.316406 10.46875 -13.703125 C 8.800781 -14.734375 7.445312 -15.644531 6.40625 -16.4375 C 5.375 -17.226562 4.53125 -18.179688 3.875 -19.296875 C 3.21875 -20.421875 2.890625 -21.738281 2.890625 -23.25 C 2.890625 -25.632812 3.65625 -27.457031 5.1875 -28.71875 C 6.726562 -29.976562 8.632812 -30.609375 10.90625 -30.609375 Z M 10.90625 -30.609375 "/></g></g><g style="fill:#6d6e71;fill-opacity:1;"><g transform="translate(204.290992, 412.081164)"><path style="stroke:none" d="M 4.8125 -8.953125 C 5.945312 -8.953125 6.835938 -8.675781 7.484375 -8.125 C 8.140625 -7.582031 8.46875 -6.832031 8.46875 -5.875 C 8.46875 -4.925781 8.140625 -4.179688 7.484375 -3.640625 C 6.835938 -3.097656 5.945312 -2.828125 4.8125 -2.828125 L 2.40625 -2.828125 L 2.40625 0 L 1.453125 0 L 1.453125 -8.953125 Z M 4.78125 -3.65625 C 5.664062 -3.65625 6.34375 -3.847656 6.8125 -4.234375 C 7.28125 -4.617188 7.515625 -5.164062 7.515625 -5.875 C 7.515625 -6.601562 7.28125 -7.160156 6.8125 -7.546875 C 6.34375 -7.929688 5.664062 -8.125 4.78125 -8.125 L 2.40625 -8.125 L 2.40625 -3.65625 Z M 4.78125 -3.65625 "/></g></g><g style="fill:#6d6e71;fill-opacity:1;"><g transform="translate(218.576668, 412.081164)"><path style="stroke:none" d="M 3.921875 0.078125 C 3.253906 0.078125 2.613281 -0.0234375 2 -0.234375 C 1.394531 -0.453125 0.925781 -0.738281 0.59375 -1.09375 L 0.96875 -1.8125 C 1.289062 -1.488281 1.71875 -1.226562 2.25 -1.03125 C 2.789062 -0.832031 3.347656 -0.734375 3.921875 -0.734375 C 4.722656 -0.734375 5.320312 -0.878906 5.71875 -1.171875 C 6.125 -1.460938 6.328125 -1.84375 6.328125 -2.3125 C 6.328125 -2.664062 6.21875 -2.945312 6 -3.15625 C 5.78125 -3.375 5.515625 -3.539062 5.203125 -3.65625 C 4.890625 -3.769531 4.453125 -3.894531 3.890625 -4.03125 C 3.210938 -4.207031 2.671875 -4.375 2.265625 -4.53125 C 1.867188 -4.6875 1.523438 -4.925781 1.234375 -5.25 C 0.953125 -5.570312 0.8125 -6.007812 0.8125 -6.5625 C 0.8125 -7.019531 0.929688 -7.429688 1.171875 -7.796875 C 1.410156 -8.171875 1.773438 -8.46875 2.265625 -8.6875 C 2.765625 -8.914062 3.378906 -9.03125 4.109375 -9.03125 C 4.617188 -9.03125 5.117188 -8.957031 5.609375 -8.8125 C 6.109375 -8.675781 6.535156 -8.484375 6.890625 -8.234375 L 6.5625 -7.484375 C 6.1875 -7.722656 5.785156 -7.90625 5.359375 -8.03125 C 4.941406 -8.15625 4.523438 -8.21875 4.109375 -8.21875 C 3.328125 -8.21875 2.738281 -8.066406 2.34375 -7.765625 C 1.945312 -7.460938 1.75 -7.070312 1.75 -6.59375 C 1.75 -6.238281 1.859375 -5.953125 2.078125 -5.734375 C 2.296875 -5.515625 2.566406 -5.347656 2.890625 -5.234375 C 3.222656 -5.117188 3.664062 -4.992188 4.21875 -4.859375 C 4.875 -4.691406 5.40625 -4.53125 5.8125 -4.375 C 6.21875 -4.21875 6.5625 -3.976562 6.84375 -3.65625 C 7.125 -3.34375 7.265625 -2.910156 7.265625 -2.359375 C 7.265625 -1.910156 7.140625 -1.5 6.890625 -1.125 C 6.648438 -0.757812 6.273438 -0.46875 5.765625 -0.25 C 5.265625 -0.03125 4.648438 0.078125 3.921875 0.078125 Z M 3.921875 0.078125 "/></g></g><g style="fill:#6d6e71;fill-opacity:1;"><g transform="translate(231.546219, 412.081164)"><path style="stroke:none" d="M 4.53125 -3.09375 L 4.53125 0 L 3.59375 0 L 3.59375 -3.09375 L 0.015625 -8.953125 L 1.015625 -8.953125 L 4.09375 -3.921875 L 7.15625 -8.953125 L 8.109375 -8.953125 Z M 4.53125 -3.09375 "/></g></g><g style="fill:#6d6e71;fill-opacity:1;"><g transform="translate(244.771332, 412.081164)"><path style="stroke:none" d="M 5.34375 0.078125 C 4.457031 0.078125 3.65625 -0.113281 2.9375 -0.5 C 2.226562 -0.894531 1.671875 -1.441406 1.265625 -2.140625 C 0.867188 -2.835938 0.671875 -3.613281 0.671875 -4.46875 C 0.671875 -5.332031 0.867188 -6.109375 1.265625 -6.796875 C 1.671875 -7.492188 2.234375 -8.039062 2.953125 -8.4375 C 3.671875 -8.832031 4.472656 -9.03125 5.359375 -9.03125 C 6.023438 -9.03125 6.640625 -8.914062 7.203125 -8.6875 C 7.765625 -8.46875 8.238281 -8.144531 8.625 -7.71875 L 8.03125 -7.125 C 7.332031 -7.832031 6.445312 -8.1875 5.375 -8.1875 C 4.664062 -8.1875 4.019531 -8.019531 3.4375 -7.6875 C 2.863281 -7.363281 2.410156 -6.921875 2.078125 -6.359375 C 1.753906 -5.796875 1.59375 -5.164062 1.59375 -4.46875 C 1.59375 -3.769531 1.753906 -3.140625 2.078125 -2.578125 C 2.410156 -2.015625 2.863281 -1.570312 3.4375 -1.25 C 4.019531 -0.925781 4.664062 -0.765625 5.375 -0.765625 C 6.445312 -0.765625 7.332031 -1.125 8.03125 -1.84375 L 8.625 -1.234375 C 8.238281 -0.804688 7.757812 -0.476562 7.1875 -0.25 C 6.625 -0.03125 6.007812 0.078125 5.34375 0.078125 Z M 5.34375 0.078125 "/></g></g><g style="fill:#6d6e71;fill-opacity:1;"><g transform="translate(259.069796, 412.081164)"><path style="stroke:none" d="M 8.9375 -8.953125 L 8.9375 0 L 8 0 L 8 -4.125 L 2.40625 -4.125 L 2.40625 0 L 1.453125 0 L 1.453125 -8.953125 L 2.40625 -8.953125 L 2.40625 -4.953125 L 8 -4.953125 L 8 -8.953125 Z M 8.9375 -8.953125 "/></g></g><g style="fill:#6d6e71;fill-opacity:1;"><g transform="translate(274.569383, 412.081164)"><path style="stroke:none" d="M 5.375 0.078125 C 4.476562 0.078125 3.671875 -0.117188 2.953125 -0.515625 C 2.234375 -0.910156 1.671875 -1.453125 1.265625 -2.140625 C 0.867188 -2.835938 0.671875 -3.613281 0.671875 -4.46875 C 0.671875 -5.332031 0.867188 -6.109375 1.265625 -6.796875 C 1.671875 -7.484375 2.234375 -8.023438 2.953125 -8.421875 C 3.671875 -8.828125 4.476562 -9.03125 5.375 -9.03125 C 6.257812 -9.03125 7.054688 -8.832031 7.765625 -8.4375 C 8.472656 -8.039062 9.03125 -7.492188 9.4375 -6.796875 C 9.851562 -6.109375 10.0625 -5.332031 10.0625 -4.46875 C 10.0625 -3.613281 9.851562 -2.835938 9.4375 -2.140625 C 9.03125 -1.441406 8.472656 -0.894531 7.765625 -0.5 C 7.054688 -0.113281 6.257812 0.078125 5.375 0.078125 Z M 5.375 -0.765625 C 6.070312 -0.765625 6.707031 -0.921875 7.28125 -1.234375 C 7.851562 -1.554688 8.300781 -2 8.625 -2.5625 C 8.945312 -3.132812 9.109375 -3.769531 9.109375 -4.46875 C 9.109375 -5.164062 8.945312 -5.796875 8.625 -6.359375 C 8.300781 -6.929688 7.851562 -7.378906 7.28125 -7.703125 C 6.707031 -8.023438 6.070312 -8.1875 5.375 -8.1875 C 4.664062 -8.1875 4.019531 -8.023438 3.4375 -7.703125 C 2.863281 -7.378906 2.410156 -6.929688 2.078125 -6.359375 C 1.753906 -5.796875 1.59375 -5.164062 1.59375 -4.46875 C 1.59375 -3.769531 1.753906 -3.132812 2.078125 -2.5625 C 2.410156 -2 2.863281 -1.554688 3.4375 -1.234375 C 4.019531 -0.921875 4.664062 -0.765625 5.375 -0.765625 Z M 5.375 -0.765625 "/></g></g><g style="fill:#6d6e71;fill-opacity:1;"><g transform="translate(290.40119, 412.081164)"><path style="stroke:none" d="M 3.1875 -8.125 L 0.046875 -8.125 L 0.046875 -8.953125 L 7.28125 -8.953125 L 7.28125 -8.125 L 4.140625 -8.125 L 4.140625 0 L 3.1875 0 Z M 3.1875 -8.125 "/></g></g><g style="fill:#6d6e71;fill-opacity:1;"><g transform="translate(302.846845, 412.081164)"><path style="stroke:none" d="M 8.9375 -8.953125 L 8.9375 0 L 8 0 L 8 -4.125 L 2.40625 -4.125 L 2.40625 0 L 1.453125 0 L 1.453125 -8.953125 L 2.40625 -8.953125 L 2.40625 -4.953125 L 8 -4.953125 L 8 -8.953125 Z M 8.9375 -8.953125 "/></g></g><g style="fill:#6d6e71;fill-opacity:1;"><g transform="translate(318.346432, 412.081164)"><path style="stroke:none" d="M 7.78125 -0.8125 L 7.78125 0 L 1.453125 0 L 1.453125 -8.953125 L 7.59375 -8.953125 L 7.59375 -8.125 L 2.40625 -8.125 L 2.40625 -4.953125 L 7.03125 -4.953125 L 7.03125 -4.140625 L 2.40625 -4.140625 L 2.40625 -0.8125 Z M 7.78125 -0.8125 "/></g></g><g style="fill:#6d6e71;fill-opacity:1;"><g transform="translate(332.005997, 412.081164)"><path style="stroke:none" d="M 7.5625 0 L 5.515625 -2.875 C 5.285156 -2.851562 5.050781 -2.84375 4.8125 -2.84375 L 2.40625 -2.84375 L 2.40625 0 L 1.453125 0 L 1.453125 -8.953125 L 4.8125 -8.953125 C 5.945312 -8.953125 6.835938 -8.675781 7.484375 -8.125 C 8.140625 -7.582031 8.46875 -6.832031 8.46875 -5.875 C 8.46875 -5.175781 8.289062 -4.585938 7.9375 -4.109375 C 7.582031 -3.628906 7.078125 -3.28125 6.421875 -3.0625 L 8.609375 0 Z M 4.78125 -3.640625 C 5.664062 -3.640625 6.34375 -3.832031 6.8125 -4.21875 C 7.28125 -4.613281 7.515625 -5.164062 7.515625 -5.875 C 7.515625 -6.601562 7.28125 -7.160156 6.8125 -7.546875 C 6.34375 -7.929688 5.664062 -8.125 4.78125 -8.125 L 2.40625 -8.125 L 2.40625 -3.640625 Z M 4.78125 -3.640625 "/></g></g><g style="fill:#6d6e71;fill-opacity:1;"><g transform="translate(346.35556, 412.081164)"><path style="stroke:none" d="M 7.0625 -2.390625 L 2.078125 -2.390625 L 1.015625 0 L 0.03125 0 L 4.109375 -8.953125 L 5.046875 -8.953125 L 9.140625 0 L 8.140625 0 Z M 6.71875 -3.15625 L 4.578125 -7.96875 L 2.421875 -3.15625 Z M 6.71875 -3.15625 "/></g></g><g style="fill:#6d6e71;fill-opacity:1;"><g transform="translate(360.628466, 412.081164)"><path style="stroke:none" d="M 4.8125 -8.953125 C 5.945312 -8.953125 6.835938 -8.675781 7.484375 -8.125 C 8.140625 -7.582031 8.46875 -6.832031 8.46875 -5.875 C 8.46875 -4.925781 8.140625 -4.179688 7.484375 -3.640625 C 6.835938 -3.097656 5.945312 -2.828125 4.8125 -2.828125 L 2.40625 -2.828125 L 2.40625 0 L 1.453125 0 L 1.453125 -8.953125 Z M 4.78125 -3.65625 C 5.664062 -3.65625 6.34375 -3.847656 6.8125 -4.234375 C 7.28125 -4.617188 7.515625 -5.164062 7.515625 -5.875 C 7.515625 -6.601562 7.28125 -7.160156 6.8125 -7.546875 C 6.34375 -7.929688 5.664062 -8.125 4.78125 -8.125 L 2.40625 -8.125 L 2.40625 -3.65625 Z M 4.78125 -3.65625 "/></g></g><g style="fill:#6d6e71;fill-opacity:1;"><g transform="translate(374.914142, 412.081164)"><path style="stroke:none" d="M 4.53125 -3.09375 L 4.53125 0 L 3.59375 0 L 3.59375 -3.09375 L 0.015625 -8.953125 L 1.015625 -8.953125 L 4.09375 -3.921875 L 7.15625 -8.953125 L 8.109375 -8.953125 Z M 4.53125 -3.09375 "/></g></g></g></svg>