<svg xmlns="http://www.w3.org/2000/svg" xmlns:xlink="http://www.w3.org/1999/xlink" width="300" zoomAndPan="magnify" viewBox="0 0 224.87999 225" height="300" preserveAspectRatio="xMidYMid meet" version="1.2"><defs><clipPath id="ad1879756c"><path d="M 0 0.0585938 L 224.761719 0.0585938 L 224.761719 224.9375 L 0 224.9375 Z M 0 0.0585938 "/></clipPath><clipPath id="fd4caf30f1"><path d="M 84 49 L 131 49 L 131 105.21875 L 84 105.21875 Z M 84 49 "/></clipPath></defs><g id="58873d3d2f"><g clip-rule="nonzero" clip-path="url(#ad1879756c)"><path style=" stroke:none;fill-rule:nonzero;fill:#ffffff;fill-opacity:1;" d="M 0 0.0585938 L 224.878906 0.0585938 L 224.878906 224.941406 L 0 224.941406 Z M 0 0.0585938 "/><path style=" stroke:none;fill-rule:nonzero;fill:#ffffff;fill-opacity:1;" d="M 0 0.0585938 L 224.878906 0.0585938 L 224.878906 224.941406 L 0 224.941406 Z M 0 0.0585938 "/></g><path style="fill:none;stroke-width:1;stroke-linecap:round;stroke-linejoin:miter;stroke:#000000;stroke-opacity:1;stroke-miterlimit:4;" d="M 0.499819 0.502099 L 220.096122 0.502099 " transform="matrix(0.7496,0,0,0.7496,27.387055,142.924408)"/><path style="fill:none;stroke-width:1;stroke-linecap:round;stroke-linejoin:miter;stroke:#000000;stroke-opacity:1;stroke-miterlimit:4;" d="M 0.499819 0.497506 L 220.096122 0.497506 " transform="matrix(0.7496,0,0,0.7496,27.387055,111.795038)"/><g clip-rule="nonzero" clip-path="url(#fd4caf30f1)"><path style=" stroke:none;fill-rule:nonzero;fill:#000000;fill-opacity:1;" d="M 104.464844 105.179688 L 104.296875 105.179688 C 104.296875 105.097656 104.675781 97.089844 100.800781 95.605469 C 98.945312 94.886719 96.710938 95.4375 94.773438 95.902344 C 92.542969 96.414062 90.4375 96.921875 89.296875 95.523438 C 88.667969 94.761719 88.917969 93.785156 89.171875 92.769531 C 89.382812 92.046875 89.59375 91.285156 89.507812 90.4375 C 89.425781 89.167969 89.128906 89.125 88.75 89.039062 C 88.539062 89 88.289062 88.957031 88.035156 88.703125 C 87.867188 88.574219 87.824219 88.40625 87.824219 88.195312 C 87.824219 87.644531 88.457031 87.050781 88.707031 86.796875 C 88.371094 86.625 87.402344 86.160156 86.855469 85.695312 C 86.433594 85.3125 86.8125 84.71875 87.234375 84.042969 C 87.527344 83.574219 87.824219 83.109375 87.867188 82.730469 C 87.90625 82.304688 87.066406 82.136719 86.222656 81.921875 C 85.253906 81.710938 84.285156 81.457031 84.117188 80.863281 C 83.949219 80.230469 84.285156 79.890625 85.085938 79.042969 C 85.84375 78.238281 86.980469 77.050781 88.582031 74.765625 C 90.054688 72.644531 89.761719 71.121094 89.382812 69.171875 C 88.917969 66.882812 88.371094 64.046875 90.773438 59.257812 C 92.964844 55.105469 98.652344 51.421875 105.390625 49.894531 C 112.636719 48.285156 119.417969 49.386719 123.925781 52.902344 C 128.601562 56.589844 131.171875 62.183594 130.921875 68.324219 C 130.75 72.859375 129.023438 76.839844 126.539062 78.449219 C 125.613281 79.042969 124.304688 79.382812 122.789062 79.507812 C 122.453125 81.796875 122.074219 83.957031 121.738281 85.992188 C 121.609375 86.710938 121.484375 87.429688 121.355469 88.109375 C 119.882812 96.792969 123.632812 99.207031 123.632812 99.207031 L 123.546875 99.378906 C 123.503906 99.335938 119.671875 96.878906 121.1875 88.109375 C 121.316406 87.429688 121.441406 86.710938 121.566406 85.992188 C 121.90625 84 122.285156 81.796875 122.621094 79.59375 C 117.398438 79.890625 109.855469 77.644531 107.160156 74.804688 C 106.023438 73.621094 105.855469 72.433594 106.613281 71.332031 C 107.539062 70.019531 108.761719 69.257812 110.152344 69.046875 C 112.804688 68.621094 115.5 70.359375 116.175781 70.78125 C 115.839844 66.164062 117.269531 61.714844 119.417969 60.867188 C 120.09375 60.613281 121.105469 60.613281 122.285156 62.054688 C 124.515625 64.894531 123.886719 72.265625 122.789062 79.382812 C 124.265625 79.253906 125.527344 78.957031 126.414062 78.363281 C 128.855469 76.753906 130.539062 72.816406 130.710938 68.367188 C 130.960938 62.265625 128.433594 56.71875 123.800781 53.074219 C 119.335938 49.558594 112.636719 48.457031 105.433594 50.066406 C 98.777344 51.546875 93.089844 55.234375 90.984375 59.386719 C 88.582031 64.128906 89.128906 66.925781 89.59375 69.171875 C 89.972656 71.078125 90.308594 72.730469 88.792969 74.890625 C 87.191406 77.179688 86.054688 78.363281 85.296875 79.171875 C 84.496094 79.976562 84.242188 80.3125 84.371094 80.820312 C 84.496094 81.332031 85.464844 81.542969 86.308594 81.753906 C 87.234375 81.964844 88.117188 82.179688 88.078125 82.730469 C 88.035156 83.152344 87.738281 83.660156 87.445312 84.125 C 87.066406 84.71875 86.726562 85.269531 87.023438 85.566406 C 87.613281 86.117188 88.917969 86.710938 88.917969 86.710938 L 89.046875 86.753906 L 88.917969 86.839844 C 88.917969 86.839844 87.992188 87.601562 87.992188 88.195312 C 87.992188 88.320312 88.035156 88.449219 88.160156 88.574219 C 88.371094 88.785156 88.582031 88.828125 88.792969 88.871094 C 89.296875 88.957031 89.59375 89.125 89.675781 90.398438 C 89.761719 91.242188 89.507812 92.046875 89.339844 92.769531 C 89.046875 93.785156 88.835938 94.675781 89.425781 95.394531 C 90.519531 96.707031 92.457031 96.242188 94.734375 95.691406 C 96.710938 95.226562 98.945312 94.675781 100.882812 95.4375 C 104.84375 96.964844 104.464844 104.84375 104.464844 105.179688 Z M 111.035156 69.171875 C 110.785156 69.171875 110.488281 69.171875 110.234375 69.214844 C 108.84375 69.425781 107.707031 70.1875 106.78125 71.460938 C 106.066406 72.476562 106.234375 73.578125 107.285156 74.722656 C 109.941406 77.519531 117.480469 79.761719 122.664062 79.425781 C 123.757812 72.347656 124.390625 64.976562 122.199219 62.183594 C 121.355469 61.082031 120.429688 60.699219 119.546875 61.082031 C 117.480469 61.886719 116.050781 66.417969 116.429688 70.992188 L 116.429688 71.207031 L 116.261719 71.078125 C 116.261719 71.035156 113.730469 69.171875 111.035156 69.171875 Z M 111.035156 69.171875 "/></g><g style="fill:#000000;fill-opacity:1;"><g transform="translate(31.38897, 133.358322)"><path style="stroke:none" d="M 4.078125 -11.46875 C 4.546875 -11.46875 4.914062 -11.414062 5.1875 -11.3125 C 5.457031 -11.21875 5.738281 -11.070312 6.03125 -10.875 C 6.257812 -10.726562 6.441406 -10.65625 6.578125 -10.65625 C 6.671875 -10.65625 6.742188 -10.707031 6.796875 -10.8125 C 6.847656 -10.925781 6.890625 -11.109375 6.921875 -11.359375 L 7.296875 -11.359375 C 7.234375 -10.742188 7.203125 -9.660156 7.203125 -8.109375 L 6.84375 -8.109375 C 6.78125 -8.960938 6.53125 -9.6875 6.09375 -10.28125 C 5.664062 -10.875 5.046875 -11.171875 4.234375 -11.171875 C 3.648438 -11.171875 3.175781 -10.992188 2.8125 -10.640625 C 2.457031 -10.296875 2.28125 -9.851562 2.28125 -9.3125 C 2.28125 -8.90625 2.375 -8.550781 2.5625 -8.25 C 2.75 -7.957031 2.984375 -7.703125 3.265625 -7.484375 C 3.554688 -7.273438 3.96875 -7.007812 4.5 -6.6875 L 4.96875 -6.390625 C 5.632812 -5.984375 6.160156 -5.617188 6.546875 -5.296875 C 6.929688 -4.984375 7.238281 -4.625 7.46875 -4.21875 C 7.707031 -3.820312 7.828125 -3.351562 7.828125 -2.8125 C 7.828125 -1.84375 7.507812 -1.09375 6.875 -0.5625 C 6.238281 -0.0390625 5.429688 0.21875 4.453125 0.21875 C 3.941406 0.21875 3.523438 0.164062 3.203125 0.0625 C 2.878906 -0.0390625 2.566406 -0.179688 2.265625 -0.359375 C 2.035156 -0.515625 1.851562 -0.59375 1.71875 -0.59375 C 1.625 -0.59375 1.550781 -0.535156 1.5 -0.421875 C 1.445312 -0.304688 1.40625 -0.128906 1.375 0.109375 L 1 0.109375 C 1.039062 -0.472656 1.0625 -1.75 1.0625 -3.71875 L 1.4375 -3.71875 C 1.507812 -2.644531 1.773438 -1.769531 2.234375 -1.09375 C 2.691406 -0.425781 3.394531 -0.09375 4.34375 -0.09375 C 4.914062 -0.09375 5.398438 -0.269531 5.796875 -0.625 C 6.203125 -0.988281 6.40625 -1.519531 6.40625 -2.21875 C 6.40625 -2.8125 6.207031 -3.316406 5.8125 -3.734375 C 5.414062 -4.148438 4.785156 -4.617188 3.921875 -5.140625 C 3.296875 -5.523438 2.785156 -5.863281 2.390625 -6.15625 C 2.003906 -6.457031 1.6875 -6.816406 1.4375 -7.234375 C 1.195312 -7.648438 1.078125 -8.140625 1.078125 -8.703125 C 1.078125 -9.597656 1.363281 -10.28125 1.9375 -10.75 C 2.519531 -11.226562 3.234375 -11.46875 4.078125 -11.46875 Z M 4.078125 -11.46875 "/></g></g><g style="fill:#000000;fill-opacity:1;"><g transform="translate(41.602384, 133.358322)"><path style="stroke:none" d="M 9.046875 -1.34375 C 9.296875 -0.675781 9.660156 -0.332031 10.140625 -0.3125 L 10.140625 0 C 9.722656 -0.03125 9.15625 -0.046875 8.4375 -0.046875 C 7.519531 -0.046875 6.835938 -0.03125 6.390625 0 L 6.390625 -0.3125 C 6.796875 -0.332031 7.085938 -0.382812 7.265625 -0.46875 C 7.441406 -0.550781 7.53125 -0.695312 7.53125 -0.90625 C 7.53125 -1.09375 7.46875 -1.34375 7.34375 -1.65625 L 6.359375 -4.28125 L 2.5 -4.28125 L 1.84375 -2.578125 C 1.632812 -2.003906 1.53125 -1.570312 1.53125 -1.28125 C 1.53125 -0.945312 1.644531 -0.703125 1.875 -0.546875 C 2.101562 -0.398438 2.453125 -0.320312 2.921875 -0.3125 L 2.921875 0 C 2.316406 -0.03125 1.703125 -0.046875 1.078125 -0.046875 C 0.597656 -0.046875 0.203125 -0.03125 -0.109375 0 L -0.109375 -0.3125 C 0.421875 -0.445312 0.84375 -0.910156 1.15625 -1.703125 L 4.890625 -11.375 L 5.15625 -11.375 Z M 6.234375 -4.59375 L 4.453125 -9.359375 L 2.625 -4.59375 Z M 6.234375 -4.59375 "/></g></g><g style="fill:#000000;fill-opacity:1;"><g transform="translate(53.251977, 133.358322)"><path style="stroke:none" d="M 13.21875 -10.96875 C 12.84375 -10.945312 12.566406 -10.90625 12.390625 -10.84375 C 12.210938 -10.78125 12.09375 -10.65625 12.03125 -10.46875 C 11.96875 -10.289062 11.9375 -10.003906 11.9375 -9.609375 L 11.9375 -1.6875 C 11.9375 -1.28125 11.96875 -0.988281 12.03125 -0.8125 C 12.09375 -0.632812 12.210938 -0.507812 12.390625 -0.4375 C 12.566406 -0.375 12.84375 -0.332031 13.21875 -0.3125 L 13.21875 0 C 12.726562 -0.03125 12.054688 -0.046875 11.203125 -0.046875 C 10.285156 -0.046875 9.601562 -0.03125 9.15625 0 L 9.15625 -0.3125 C 9.539062 -0.332031 9.820312 -0.375 10 -0.4375 C 10.175781 -0.507812 10.296875 -0.632812 10.359375 -0.8125 C 10.421875 -0.988281 10.453125 -1.28125 10.453125 -1.6875 L 10.453125 -10.234375 L 6.609375 0.078125 L 6.34375 0.078125 L 2.328125 -10.28125 L 2.328125 -1.84375 C 2.328125 -1.4375 2.359375 -1.128906 2.421875 -0.921875 C 2.492188 -0.722656 2.628906 -0.578125 2.828125 -0.484375 C 3.035156 -0.390625 3.351562 -0.332031 3.78125 -0.3125 L 3.78125 0 C 3.394531 -0.03125 2.851562 -0.046875 2.15625 -0.046875 C 1.519531 -0.046875 1.023438 -0.03125 0.671875 0 L 0.671875 -0.3125 C 1.046875 -0.332031 1.320312 -0.390625 1.5 -0.484375 C 1.675781 -0.578125 1.796875 -0.726562 1.859375 -0.9375 C 1.929688 -1.144531 1.96875 -1.445312 1.96875 -1.84375 L 1.96875 -9.609375 C 1.96875 -10.003906 1.929688 -10.289062 1.859375 -10.46875 C 1.796875 -10.65625 1.675781 -10.78125 1.5 -10.84375 C 1.332031 -10.90625 1.054688 -10.945312 0.671875 -10.96875 L 0.671875 -11.296875 C 1.023438 -11.265625 1.519531 -11.25 2.15625 -11.25 C 2.707031 -11.25 3.160156 -11.265625 3.515625 -11.296875 L 7.015625 -2.0625 L 10.453125 -11.25 L 11.203125 -11.25 C 12.054688 -11.25 12.726562 -11.265625 13.21875 -11.296875 Z M 13.21875 -10.96875 "/></g></g><g style="fill:#000000;fill-opacity:1;"><g transform="translate(68.747327, 133.358322)"><path style="stroke:none" d="M 9.046875 -1.34375 C 9.296875 -0.675781 9.660156 -0.332031 10.140625 -0.3125 L 10.140625 0 C 9.722656 -0.03125 9.15625 -0.046875 8.4375 -0.046875 C 7.519531 -0.046875 6.835938 -0.03125 6.390625 0 L 6.390625 -0.3125 C 6.796875 -0.332031 7.085938 -0.382812 7.265625 -0.46875 C 7.441406 -0.550781 7.53125 -0.695312 7.53125 -0.90625 C 7.53125 -1.09375 7.46875 -1.34375 7.34375 -1.65625 L 6.359375 -4.28125 L 2.5 -4.28125 L 1.84375 -2.578125 C 1.632812 -2.003906 1.53125 -1.570312 1.53125 -1.28125 C 1.53125 -0.945312 1.644531 -0.703125 1.875 -0.546875 C 2.101562 -0.398438 2.453125 -0.320312 2.921875 -0.3125 L 2.921875 0 C 2.316406 -0.03125 1.703125 -0.046875 1.078125 -0.046875 C 0.597656 -0.046875 0.203125 -0.03125 -0.109375 0 L -0.109375 -0.3125 C 0.421875 -0.445312 0.84375 -0.910156 1.15625 -1.703125 L 4.890625 -11.375 L 5.15625 -11.375 Z M 6.234375 -4.59375 L 4.453125 -9.359375 L 2.625 -4.59375 Z M 6.234375 -4.59375 "/></g></g><g style="fill:#000000;fill-opacity:1;"><g transform="translate(80.39692, 133.358322)"><path style="stroke:none" d="M 10.6875 -10.96875 C 10.3125 -10.945312 10.035156 -10.890625 9.859375 -10.796875 C 9.679688 -10.710938 9.554688 -10.566406 9.484375 -10.359375 C 9.421875 -10.148438 9.390625 -9.84375 9.390625 -9.4375 L 9.390625 0.078125 L 9.03125 0.078125 L 2.328125 -10.28125 L 2.328125 -1.84375 C 2.328125 -1.4375 2.359375 -1.128906 2.421875 -0.921875 C 2.492188 -0.722656 2.628906 -0.578125 2.828125 -0.484375 C 3.035156 -0.390625 3.351562 -0.332031 3.78125 -0.3125 L 3.78125 0 C 3.394531 -0.03125 2.851562 -0.046875 2.15625 -0.046875 C 1.519531 -0.046875 1.023438 -0.03125 0.671875 0 L 0.671875 -0.3125 C 1.046875 -0.332031 1.320312 -0.390625 1.5 -0.484375 C 1.675781 -0.578125 1.796875 -0.726562 1.859375 -0.9375 C 1.929688 -1.144531 1.96875 -1.445312 1.96875 -1.84375 L 1.96875 -9.609375 C 1.96875 -10.003906 1.929688 -10.289062 1.859375 -10.46875 C 1.796875 -10.65625 1.675781 -10.78125 1.5 -10.84375 C 1.332031 -10.90625 1.054688 -10.945312 0.671875 -10.96875 L 0.671875 -11.296875 C 1.023438 -11.265625 1.519531 -11.25 2.15625 -11.25 C 2.632812 -11.25 3.046875 -11.265625 3.390625 -11.296875 L 9.03125 -2.609375 L 9.03125 -9.4375 C 9.03125 -9.851562 8.992188 -10.160156 8.921875 -10.359375 C 8.859375 -10.566406 8.722656 -10.710938 8.515625 -10.796875 C 8.316406 -10.890625 8.003906 -10.945312 7.578125 -10.96875 L 7.578125 -11.296875 C 7.960938 -11.265625 8.503906 -11.25 9.203125 -11.25 C 9.835938 -11.25 10.332031 -11.265625 10.6875 -11.296875 Z M 10.6875 -10.96875 "/></g></g><g style="fill:#000000;fill-opacity:1;"><g transform="translate(93.259281, 133.358322)"><path style="stroke:none" d="M 9.4375 -11.296875 C 9.363281 -10.535156 9.328125 -9.851562 9.328125 -9.25 C 9.328125 -8.71875 9.34375 -8.28125 9.375 -7.9375 L 9.015625 -7.9375 C 8.929688 -8.757812 8.820312 -9.367188 8.6875 -9.765625 C 8.5625 -10.171875 8.335938 -10.460938 8.015625 -10.640625 C 7.703125 -10.828125 7.21875 -10.921875 6.5625 -10.921875 L 5.6875 -10.921875 L 5.6875 -1.84375 C 5.6875 -1.40625 5.726562 -1.082031 5.8125 -0.875 C 5.90625 -0.675781 6.054688 -0.535156 6.265625 -0.453125 C 6.484375 -0.378906 6.832031 -0.332031 7.3125 -0.3125 L 7.3125 0 C 6.757812 -0.03125 5.976562 -0.046875 4.96875 -0.046875 C 3.894531 -0.046875 3.101562 -0.03125 2.59375 0 L 2.59375 -0.3125 C 3.070312 -0.332031 3.414062 -0.378906 3.625 -0.453125 C 3.84375 -0.535156 3.992188 -0.675781 4.078125 -0.875 C 4.171875 -1.082031 4.21875 -1.40625 4.21875 -1.84375 L 4.21875 -10.921875 L 3.34375 -10.921875 C 2.6875 -10.921875 2.195312 -10.828125 1.875 -10.640625 C 1.5625 -10.460938 1.335938 -10.171875 1.203125 -9.765625 C 1.078125 -9.367188 0.972656 -8.757812 0.890625 -7.9375 L 0.53125 -7.9375 C 0.5625 -8.28125 0.578125 -8.71875 0.578125 -9.25 C 0.578125 -9.851562 0.539062 -10.535156 0.46875 -11.296875 C 1.34375 -11.265625 2.84375 -11.25 4.96875 -11.25 C 7.070312 -11.25 8.5625 -11.265625 9.4375 -11.296875 Z M 9.4375 -11.296875 "/></g></g><g style="fill:#000000;fill-opacity:1;"><g transform="translate(104.765252, 133.358322)"><path style="stroke:none" d="M 11.40625 -10.96875 C 11.019531 -10.945312 10.738281 -10.90625 10.5625 -10.84375 C 10.394531 -10.78125 10.273438 -10.65625 10.203125 -10.46875 C 10.140625 -10.289062 10.109375 -10.003906 10.109375 -9.609375 L 10.109375 -1.6875 C 10.109375 -1.28125 10.140625 -0.988281 10.203125 -0.8125 C 10.273438 -0.632812 10.394531 -0.507812 10.5625 -0.4375 C 10.738281 -0.375 11.019531 -0.332031 11.40625 -0.3125 L 11.40625 0 C 10.957031 -0.03125 10.273438 -0.046875 9.359375 -0.046875 C 8.503906 -0.046875 7.832031 -0.03125 7.34375 0 L 7.34375 -0.3125 C 7.71875 -0.332031 7.992188 -0.375 8.171875 -0.4375 C 8.347656 -0.507812 8.46875 -0.632812 8.53125 -0.8125 C 8.59375 -0.988281 8.625 -1.28125 8.625 -1.6875 L 8.625 -5.515625 L 3.453125 -5.515625 L 3.453125 -1.6875 C 3.453125 -1.28125 3.484375 -0.988281 3.546875 -0.8125 C 3.609375 -0.632812 3.722656 -0.507812 3.890625 -0.4375 C 4.066406 -0.375 4.347656 -0.332031 4.734375 -0.3125 L 4.734375 0 C 4.242188 -0.03125 3.570312 -0.046875 2.71875 -0.046875 C 1.800781 -0.046875 1.117188 -0.03125 0.671875 0 L 0.671875 -0.3125 C 1.054688 -0.332031 1.332031 -0.375 1.5 -0.4375 C 1.675781 -0.507812 1.796875 -0.632812 1.859375 -0.8125 C 1.929688 -0.988281 1.96875 -1.28125 1.96875 -1.6875 L 1.96875 -9.609375 C 1.96875 -10.003906 1.929688 -10.289062 1.859375 -10.46875 C 1.796875 -10.65625 1.675781 -10.78125 1.5 -10.84375 C 1.332031 -10.90625 1.054688 -10.945312 0.671875 -10.96875 L 0.671875 -11.296875 C 1.117188 -11.265625 1.800781 -11.25 2.71875 -11.25 C 3.5625 -11.25 4.234375 -11.265625 4.734375 -11.296875 L 4.734375 -10.96875 C 4.347656 -10.945312 4.066406 -10.90625 3.890625 -10.84375 C 3.722656 -10.78125 3.609375 -10.65625 3.546875 -10.46875 C 3.484375 -10.289062 3.453125 -10.003906 3.453125 -9.609375 L 3.453125 -5.84375 L 8.625 -5.84375 L 8.625 -9.609375 C 8.625 -10.003906 8.59375 -10.289062 8.53125 -10.46875 C 8.46875 -10.65625 8.347656 -10.78125 8.171875 -10.84375 C 7.992188 -10.90625 7.71875 -10.945312 7.34375 -10.96875 L 7.34375 -11.296875 C 7.832031 -11.265625 8.503906 -11.25 9.359375 -11.25 C 10.273438 -11.25 10.957031 -11.265625 11.40625 -11.296875 Z M 11.40625 -10.96875 "/></g></g><g style="fill:#000000;fill-opacity:1;"><g transform="translate(118.441446, 133.358322)"><path style="stroke:none" d="M 9.046875 -1.34375 C 9.296875 -0.675781 9.660156 -0.332031 10.140625 -0.3125 L 10.140625 0 C 9.722656 -0.03125 9.15625 -0.046875 8.4375 -0.046875 C 7.519531 -0.046875 6.835938 -0.03125 6.390625 0 L 6.390625 -0.3125 C 6.796875 -0.332031 7.085938 -0.382812 7.265625 -0.46875 C 7.441406 -0.550781 7.53125 -0.695312 7.53125 -0.90625 C 7.53125 -1.09375 7.46875 -1.34375 7.34375 -1.65625 L 6.359375 -4.28125 L 2.5 -4.28125 L 1.84375 -2.578125 C 1.632812 -2.003906 1.53125 -1.570312 1.53125 -1.28125 C 1.53125 -0.945312 1.644531 -0.703125 1.875 -0.546875 C 2.101562 -0.398438 2.453125 -0.320312 2.921875 -0.3125 L 2.921875 0 C 2.316406 -0.03125 1.703125 -0.046875 1.078125 -0.046875 C 0.597656 -0.046875 0.203125 -0.03125 -0.109375 0 L -0.109375 -0.3125 C 0.421875 -0.445312 0.84375 -0.910156 1.15625 -1.703125 L 4.890625 -11.375 L 5.15625 -11.375 Z M 6.234375 -4.59375 L 4.453125 -9.359375 L 2.625 -4.59375 Z M 6.234375 -4.59375 "/></g></g><g style="fill:#000000;fill-opacity:1;"><g transform="translate(130.091039, 133.358322)"><path style="stroke:none" d=""/></g></g><g style="fill:#000000;fill-opacity:1;"><g transform="translate(135.660822, 133.358322)"><path style="stroke:none" d="M 13.21875 -10.96875 C 12.84375 -10.945312 12.566406 -10.90625 12.390625 -10.84375 C 12.210938 -10.78125 12.09375 -10.65625 12.03125 -10.46875 C 11.96875 -10.289062 11.9375 -10.003906 11.9375 -9.609375 L 11.9375 -1.6875 C 11.9375 -1.28125 11.96875 -0.988281 12.03125 -0.8125 C 12.09375 -0.632812 12.210938 -0.507812 12.390625 -0.4375 C 12.566406 -0.375 12.84375 -0.332031 13.21875 -0.3125 L 13.21875 0 C 12.726562 -0.03125 12.054688 -0.046875 11.203125 -0.046875 C 10.285156 -0.046875 9.601562 -0.03125 9.15625 0 L 9.15625 -0.3125 C 9.539062 -0.332031 9.820312 -0.375 10 -0.4375 C 10.175781 -0.507812 10.296875 -0.632812 10.359375 -0.8125 C 10.421875 -0.988281 10.453125 -1.28125 10.453125 -1.6875 L 10.453125 -10.234375 L 6.609375 0.078125 L 6.34375 0.078125 L 2.328125 -10.28125 L 2.328125 -1.84375 C 2.328125 -1.4375 2.359375 -1.128906 2.421875 -0.921875 C 2.492188 -0.722656 2.628906 -0.578125 2.828125 -0.484375 C 3.035156 -0.390625 3.351562 -0.332031 3.78125 -0.3125 L 3.78125 0 C 3.394531 -0.03125 2.851562 -0.046875 2.15625 -0.046875 C 1.519531 -0.046875 1.023438 -0.03125 0.671875 0 L 0.671875 -0.3125 C 1.046875 -0.332031 1.320312 -0.390625 1.5 -0.484375 C 1.675781 -0.578125 1.796875 -0.726562 1.859375 -0.9375 C 1.929688 -1.144531 1.96875 -1.445312 1.96875 -1.84375 L 1.96875 -9.609375 C 1.96875 -10.003906 1.929688 -10.289062 1.859375 -10.46875 C 1.796875 -10.65625 1.675781 -10.78125 1.5 -10.84375 C 1.332031 -10.90625 1.054688 -10.945312 0.671875 -10.96875 L 0.671875 -11.296875 C 1.023438 -11.265625 1.519531 -11.25 2.15625 -11.25 C 2.707031 -11.25 3.160156 -11.265625 3.515625 -11.296875 L 7.015625 -2.0625 L 10.453125 -11.25 L 11.203125 -11.25 C 12.054688 -11.25 12.726562 -11.265625 13.21875 -11.296875 Z M 13.21875 -10.96875 "/></g></g><g style="fill:#000000;fill-opacity:1;"><g transform="translate(151.156172, 133.358322)"><path style="stroke:none" d="M 4.734375 -10.96875 C 4.347656 -10.945312 4.066406 -10.90625 3.890625 -10.84375 C 3.722656 -10.78125 3.609375 -10.65625 3.546875 -10.46875 C 3.484375 -10.289062 3.453125 -10.003906 3.453125 -9.609375 L 3.453125 -1.6875 C 3.453125 -1.28125 3.484375 -0.988281 3.546875 -0.8125 C 3.609375 -0.632812 3.722656 -0.507812 3.890625 -0.4375 C 4.066406 -0.375 4.347656 -0.332031 4.734375 -0.3125 L 4.734375 0 C 4.242188 -0.03125 3.570312 -0.046875 2.71875 -0.046875 C 1.800781 -0.046875 1.117188 -0.03125 0.671875 0 L 0.671875 -0.3125 C 1.054688 -0.332031 1.332031 -0.375 1.5 -0.4375 C 1.675781 -0.507812 1.796875 -0.632812 1.859375 -0.8125 C 1.929688 -0.988281 1.96875 -1.28125 1.96875 -1.6875 L 1.96875 -9.609375 C 1.96875 -10.003906 1.929688 -10.289062 1.859375 -10.46875 C 1.796875 -10.65625 1.675781 -10.78125 1.5 -10.84375 C 1.332031 -10.90625 1.054688 -10.945312 0.671875 -10.96875 L 0.671875 -11.296875 C 1.117188 -11.265625 1.800781 -11.25 2.71875 -11.25 C 3.5625 -11.25 4.234375 -11.265625 4.734375 -11.296875 Z M 4.734375 -10.96875 "/></g></g><g style="fill:#000000;fill-opacity:1;"><g transform="translate(158.162134, 133.358322)"><path style="stroke:none" d="M 4.734375 -10.96875 C 4.347656 -10.945312 4.066406 -10.90625 3.890625 -10.84375 C 3.722656 -10.78125 3.609375 -10.65625 3.546875 -10.46875 C 3.484375 -10.289062 3.453125 -10.003906 3.453125 -9.609375 L 3.453125 -1.6875 C 3.453125 -1.28125 3.484375 -0.988281 3.546875 -0.8125 C 3.609375 -0.632812 3.722656 -0.515625 3.890625 -0.453125 C 4.066406 -0.390625 4.347656 -0.359375 4.734375 -0.359375 L 5.90625 -0.359375 C 6.5625 -0.359375 7.0625 -0.453125 7.40625 -0.640625 C 7.75 -0.828125 8 -1.128906 8.15625 -1.546875 C 8.320312 -1.960938 8.441406 -2.5625 8.515625 -3.34375 L 8.890625 -3.34375 C 8.859375 -3.019531 8.84375 -2.585938 8.84375 -2.046875 C 8.84375 -1.429688 8.878906 -0.75 8.953125 0 C 8.222656 -0.03125 7.003906 -0.046875 5.296875 -0.046875 C 3.253906 -0.046875 1.710938 -0.03125 0.671875 0 L 0.671875 -0.3125 C 1.054688 -0.332031 1.332031 -0.375 1.5 -0.4375 C 1.675781 -0.507812 1.796875 -0.632812 1.859375 -0.8125 C 1.929688 -0.988281 1.96875 -1.28125 1.96875 -1.6875 L 1.96875 -9.609375 C 1.96875 -10.003906 1.929688 -10.289062 1.859375 -10.46875 C 1.796875 -10.65625 1.675781 -10.78125 1.5 -10.84375 C 1.332031 -10.90625 1.054688 -10.945312 0.671875 -10.96875 L 0.671875 -11.296875 C 1.117188 -11.265625 1.800781 -11.25 2.71875 -11.25 C 3.5625 -11.25 4.234375 -11.265625 4.734375 -11.296875 Z M 4.734375 -10.96875 "/></g></g><g style="fill:#000000;fill-opacity:1;"><g transform="translate(169.141508, 133.358322)"><path style="stroke:none" d="M 4.734375 -10.96875 C 4.347656 -10.945312 4.066406 -10.90625 3.890625 -10.84375 C 3.722656 -10.78125 3.609375 -10.65625 3.546875 -10.46875 C 3.484375 -10.289062 3.453125 -10.003906 3.453125 -9.609375 L 3.453125 -1.6875 C 3.453125 -1.28125 3.484375 -0.988281 3.546875 -0.8125 C 3.609375 -0.632812 3.722656 -0.515625 3.890625 -0.453125 C 4.066406 -0.390625 4.347656 -0.359375 4.734375 -0.359375 L 5.90625 -0.359375 C 6.5625 -0.359375 7.0625 -0.453125 7.40625 -0.640625 C 7.75 -0.828125 8 -1.128906 8.15625 -1.546875 C 8.320312 -1.960938 8.441406 -2.5625 8.515625 -3.34375 L 8.890625 -3.34375 C 8.859375 -3.019531 8.84375 -2.585938 8.84375 -2.046875 C 8.84375 -1.429688 8.878906 -0.75 8.953125 0 C 8.222656 -0.03125 7.003906 -0.046875 5.296875 -0.046875 C 3.253906 -0.046875 1.710938 -0.03125 0.671875 0 L 0.671875 -0.3125 C 1.054688 -0.332031 1.332031 -0.375 1.5 -0.4375 C 1.675781 -0.507812 1.796875 -0.632812 1.859375 -0.8125 C 1.929688 -0.988281 1.96875 -1.28125 1.96875 -1.6875 L 1.96875 -9.609375 C 1.96875 -10.003906 1.929688 -10.289062 1.859375 -10.46875 C 1.796875 -10.65625 1.675781 -10.78125 1.5 -10.84375 C 1.332031 -10.90625 1.054688 -10.945312 0.671875 -10.96875 L 0.671875 -11.296875 C 1.117188 -11.265625 1.800781 -11.25 2.71875 -11.25 C 3.5625 -11.25 4.234375 -11.265625 4.734375 -11.296875 Z M 4.734375 -10.96875 "/></g></g><g style="fill:#000000;fill-opacity:1;"><g transform="translate(180.120881, 133.358322)"><path style="stroke:none" d="M 4.078125 -11.46875 C 4.546875 -11.46875 4.914062 -11.414062 5.1875 -11.3125 C 5.457031 -11.21875 5.738281 -11.070312 6.03125 -10.875 C 6.257812 -10.726562 6.441406 -10.65625 6.578125 -10.65625 C 6.671875 -10.65625 6.742188 -10.707031 6.796875 -10.8125 C 6.847656 -10.925781 6.890625 -11.109375 6.921875 -11.359375 L 7.296875 -11.359375 C 7.234375 -10.742188 7.203125 -9.660156 7.203125 -8.109375 L 6.84375 -8.109375 C 6.78125 -8.960938 6.53125 -9.6875 6.09375 -10.28125 C 5.664062 -10.875 5.046875 -11.171875 4.234375 -11.171875 C 3.648438 -11.171875 3.175781 -10.992188 2.8125 -10.640625 C 2.457031 -10.296875 2.28125 -9.851562 2.28125 -9.3125 C 2.28125 -8.90625 2.375 -8.550781 2.5625 -8.25 C 2.75 -7.957031 2.984375 -7.703125 3.265625 -7.484375 C 3.554688 -7.273438 3.96875 -7.007812 4.5 -6.6875 L 4.96875 -6.390625 C 5.632812 -5.984375 6.160156 -5.617188 6.546875 -5.296875 C 6.929688 -4.984375 7.238281 -4.625 7.46875 -4.21875 C 7.707031 -3.820312 7.828125 -3.351562 7.828125 -2.8125 C 7.828125 -1.84375 7.507812 -1.09375 6.875 -0.5625 C 6.238281 -0.0390625 5.429688 0.21875 4.453125 0.21875 C 3.941406 0.21875 3.523438 0.164062 3.203125 0.0625 C 2.878906 -0.0390625 2.566406 -0.179688 2.265625 -0.359375 C 2.035156 -0.515625 1.851562 -0.59375 1.71875 -0.59375 C 1.625 -0.59375 1.550781 -0.535156 1.5 -0.421875 C 1.445312 -0.304688 1.40625 -0.128906 1.375 0.109375 L 1 0.109375 C 1.039062 -0.472656 1.0625 -1.75 1.0625 -3.71875 L 1.4375 -3.71875 C 1.507812 -2.644531 1.773438 -1.769531 2.234375 -1.09375 C 2.691406 -0.425781 3.394531 -0.09375 4.34375 -0.09375 C 4.914062 -0.09375 5.398438 -0.269531 5.796875 -0.625 C 6.203125 -0.988281 6.40625 -1.519531 6.40625 -2.21875 C 6.40625 -2.8125 6.207031 -3.316406 5.8125 -3.734375 C 5.414062 -4.148438 4.785156 -4.617188 3.921875 -5.140625 C 3.296875 -5.523438 2.785156 -5.863281 2.390625 -6.15625 C 2.003906 -6.457031 1.6875 -6.816406 1.4375 -7.234375 C 1.195312 -7.648438 1.078125 -8.140625 1.078125 -8.703125 C 1.078125 -9.597656 1.363281 -10.28125 1.9375 -10.75 C 2.519531 -11.226562 3.234375 -11.46875 4.078125 -11.46875 Z M 4.078125 -11.46875 "/></g></g><g style="fill:#6d6e71;fill-opacity:1;"><g transform="translate(76.568257, 154.508024)"><path style="stroke:none" d="M 1.796875 -3.359375 C 2.234375 -3.359375 2.570312 -3.253906 2.8125 -3.046875 C 3.050781 -2.847656 3.171875 -2.566406 3.171875 -2.203125 C 3.171875 -1.847656 3.050781 -1.566406 2.8125 -1.359375 C 2.570312 -1.160156 2.234375 -1.0625 1.796875 -1.0625 L 0.90625 -1.0625 L 0.90625 0 L 0.546875 0 L 0.546875 -3.359375 Z M 1.796875 -1.375 C 2.128906 -1.375 2.382812 -1.445312 2.5625 -1.59375 C 2.738281 -1.738281 2.828125 -1.941406 2.828125 -2.203125 C 2.828125 -2.472656 2.738281 -2.679688 2.5625 -2.828125 C 2.382812 -2.972656 2.128906 -3.046875 1.796875 -3.046875 L 0.90625 -3.046875 L 0.90625 -1.375 Z M 1.796875 -1.375 "/></g></g><g style="fill:#6d6e71;fill-opacity:1;"><g transform="translate(81.922528, 154.508024)"><path style="stroke:none" d="M 1.46875 0.03125 C 1.21875 0.03125 0.976562 -0.0078125 0.75 -0.09375 C 0.519531 -0.175781 0.34375 -0.28125 0.21875 -0.40625 L 0.359375 -0.6875 C 0.484375 -0.5625 0.644531 -0.457031 0.84375 -0.375 C 1.050781 -0.300781 1.257812 -0.265625 1.46875 -0.265625 C 1.769531 -0.265625 1.992188 -0.320312 2.140625 -0.4375 C 2.296875 -0.550781 2.375 -0.695312 2.375 -0.875 C 2.375 -1 2.332031 -1.101562 2.25 -1.1875 C 2.164062 -1.269531 2.066406 -1.332031 1.953125 -1.375 C 1.835938 -1.414062 1.671875 -1.460938 1.453125 -1.515625 C 1.203125 -1.578125 1 -1.640625 0.84375 -1.703125 C 0.695312 -1.765625 0.570312 -1.851562 0.46875 -1.96875 C 0.363281 -2.09375 0.3125 -2.257812 0.3125 -2.46875 C 0.3125 -2.632812 0.351562 -2.785156 0.4375 -2.921875 C 0.53125 -3.066406 0.664062 -3.179688 0.84375 -3.265625 C 1.03125 -3.347656 1.265625 -3.390625 1.546875 -3.390625 C 1.734375 -3.390625 1.921875 -3.363281 2.109375 -3.3125 C 2.296875 -3.257812 2.453125 -3.1875 2.578125 -3.09375 L 2.46875 -2.8125 C 2.320312 -2.90625 2.171875 -2.972656 2.015625 -3.015625 C 1.859375 -3.054688 1.703125 -3.078125 1.546875 -3.078125 C 1.253906 -3.078125 1.03125 -3.019531 0.875 -2.90625 C 0.726562 -2.800781 0.65625 -2.65625 0.65625 -2.46875 C 0.65625 -2.34375 0.695312 -2.238281 0.78125 -2.15625 C 0.863281 -2.070312 0.960938 -2.007812 1.078125 -1.96875 C 1.203125 -1.925781 1.367188 -1.878906 1.578125 -1.828125 C 1.828125 -1.765625 2.023438 -1.703125 2.171875 -1.640625 C 2.328125 -1.578125 2.457031 -1.484375 2.5625 -1.359375 C 2.664062 -1.242188 2.71875 -1.085938 2.71875 -0.890625 C 2.71875 -0.722656 2.671875 -0.566406 2.578125 -0.421875 C 2.492188 -0.285156 2.359375 -0.175781 2.171875 -0.09375 C 1.984375 -0.0078125 1.75 0.03125 1.46875 0.03125 Z M 1.46875 0.03125 "/></g></g><g style="fill:#6d6e71;fill-opacity:1;"><g transform="translate(86.783515, 154.508024)"><path style="stroke:none" d="M 1.703125 -1.15625 L 1.703125 0 L 1.34375 0 L 1.34375 -1.15625 L 0 -3.359375 L 0.390625 -3.359375 L 1.53125 -1.46875 L 2.6875 -3.359375 L 3.046875 -3.359375 Z M 1.703125 -1.15625 "/></g></g><g style="fill:#6d6e71;fill-opacity:1;"><g transform="translate(91.740287, 154.508024)"><path style="stroke:none" d="M 2 0.03125 C 1.664062 0.03125 1.363281 -0.0390625 1.09375 -0.1875 C 0.832031 -0.332031 0.625 -0.535156 0.46875 -0.796875 C 0.320312 -1.054688 0.25 -1.347656 0.25 -1.671875 C 0.25 -1.992188 0.320312 -2.285156 0.46875 -2.546875 C 0.625 -2.816406 0.835938 -3.023438 1.109375 -3.171875 C 1.378906 -3.316406 1.679688 -3.390625 2.015625 -3.390625 C 2.265625 -3.390625 2.492188 -3.347656 2.703125 -3.265625 C 2.910156 -3.179688 3.085938 -3.054688 3.234375 -2.890625 L 3.015625 -2.671875 C 2.753906 -2.929688 2.421875 -3.0625 2.015625 -3.0625 C 1.753906 -3.0625 1.515625 -3 1.296875 -2.875 C 1.078125 -2.757812 0.90625 -2.597656 0.78125 -2.390625 C 0.65625 -2.179688 0.59375 -1.941406 0.59375 -1.671875 C 0.59375 -1.410156 0.65625 -1.175781 0.78125 -0.96875 C 0.90625 -0.757812 1.078125 -0.59375 1.296875 -0.46875 C 1.515625 -0.34375 1.753906 -0.28125 2.015625 -0.28125 C 2.421875 -0.28125 2.753906 -0.414062 3.015625 -0.6875 L 3.234375 -0.46875 C 3.085938 -0.300781 2.90625 -0.175781 2.6875 -0.09375 C 2.476562 -0.0078125 2.25 0.03125 2 0.03125 Z M 2 0.03125 "/></g></g><g style="fill:#6d6e71;fill-opacity:1;"><g transform="translate(97.099351, 154.508024)"><path style="stroke:none" d="M 3.359375 -3.359375 L 3.359375 0 L 3 0 L 3 -1.546875 L 0.90625 -1.546875 L 0.90625 0 L 0.546875 0 L 0.546875 -3.359375 L 0.90625 -3.359375 L 0.90625 -1.859375 L 3 -1.859375 L 3 -3.359375 Z M 3.359375 -3.359375 "/></g></g><g style="fill:#6d6e71;fill-opacity:1;"><g transform="translate(102.908595, 154.508024)"><path style="stroke:none" d="M 2.015625 0.03125 C 1.679688 0.03125 1.378906 -0.0390625 1.109375 -0.1875 C 0.835938 -0.34375 0.625 -0.546875 0.46875 -0.796875 C 0.320312 -1.054688 0.25 -1.347656 0.25 -1.671875 C 0.25 -1.992188 0.320312 -2.285156 0.46875 -2.546875 C 0.625 -2.804688 0.835938 -3.007812 1.109375 -3.15625 C 1.378906 -3.3125 1.679688 -3.390625 2.015625 -3.390625 C 2.347656 -3.390625 2.644531 -3.316406 2.90625 -3.171875 C 3.175781 -3.023438 3.390625 -2.816406 3.546875 -2.546875 C 3.703125 -2.285156 3.78125 -1.992188 3.78125 -1.671875 C 3.78125 -1.347656 3.703125 -1.054688 3.546875 -0.796875 C 3.390625 -0.535156 3.175781 -0.332031 2.90625 -0.1875 C 2.644531 -0.0390625 2.347656 0.03125 2.015625 0.03125 Z M 2.015625 -0.28125 C 2.273438 -0.28125 2.515625 -0.335938 2.734375 -0.453125 C 2.953125 -0.578125 3.117188 -0.742188 3.234375 -0.953125 C 3.359375 -1.171875 3.421875 -1.410156 3.421875 -1.671875 C 3.421875 -1.941406 3.359375 -2.179688 3.234375 -2.390625 C 3.117188 -2.597656 2.953125 -2.757812 2.734375 -2.875 C 2.515625 -3 2.273438 -3.0625 2.015625 -3.0625 C 1.742188 -3.0625 1.5 -3 1.28125 -2.875 C 1.070312 -2.757812 0.90625 -2.597656 0.78125 -2.390625 C 0.65625 -2.179688 0.59375 -1.941406 0.59375 -1.671875 C 0.59375 -1.410156 0.65625 -1.171875 0.78125 -0.953125 C 0.90625 -0.742188 1.070312 -0.578125 1.28125 -0.453125 C 1.5 -0.335938 1.742188 -0.28125 2.015625 -0.28125 Z M 2.015625 -0.28125 "/></g></g><g style="fill:#6d6e71;fill-opacity:1;"><g transform="translate(108.842356, 154.508024)"><path style="stroke:none" d="M 1.203125 -3.046875 L 0.015625 -3.046875 L 0.015625 -3.359375 L 2.734375 -3.359375 L 2.734375 -3.046875 L 1.546875 -3.046875 L 1.546875 0 L 1.203125 0 Z M 1.203125 -3.046875 "/></g></g><g style="fill:#6d6e71;fill-opacity:1;"><g transform="translate(113.506987, 154.508024)"><path style="stroke:none" d="M 3.359375 -3.359375 L 3.359375 0 L 3 0 L 3 -1.546875 L 0.90625 -1.546875 L 0.90625 0 L 0.546875 0 L 0.546875 -3.359375 L 0.90625 -3.359375 L 0.90625 -1.859375 L 3 -1.859375 L 3 -3.359375 Z M 3.359375 -3.359375 "/></g></g><g style="fill:#6d6e71;fill-opacity:1;"><g transform="translate(119.316232, 154.508024)"><path style="stroke:none" d="M 2.921875 -0.3125 L 2.921875 0 L 0.546875 0 L 0.546875 -3.359375 L 2.84375 -3.359375 L 2.84375 -3.046875 L 0.90625 -3.046875 L 0.90625 -1.859375 L 2.640625 -1.859375 L 2.640625 -1.546875 L 0.90625 -1.546875 L 0.90625 -0.3125 Z M 2.921875 -0.3125 "/></g></g><g style="fill:#6d6e71;fill-opacity:1;"><g transform="translate(124.435836, 154.508024)"><path style="stroke:none" d="M 2.84375 0 L 2.078125 -1.078125 C 1.984375 -1.066406 1.890625 -1.0625 1.796875 -1.0625 L 0.90625 -1.0625 L 0.90625 0 L 0.546875 0 L 0.546875 -3.359375 L 1.796875 -3.359375 C 2.234375 -3.359375 2.570312 -3.253906 2.8125 -3.046875 C 3.050781 -2.847656 3.171875 -2.566406 3.171875 -2.203125 C 3.171875 -1.941406 3.101562 -1.71875 2.96875 -1.53125 C 2.84375 -1.351562 2.65625 -1.226562 2.40625 -1.15625 L 3.234375 0 Z M 1.796875 -1.359375 C 2.128906 -1.359375 2.382812 -1.429688 2.5625 -1.578125 C 2.738281 -1.734375 2.828125 -1.941406 2.828125 -2.203125 C 2.828125 -2.472656 2.738281 -2.679688 2.5625 -2.828125 C 2.382812 -2.972656 2.128906 -3.046875 1.796875 -3.046875 L 0.90625 -3.046875 L 0.90625 -1.359375 Z M 1.796875 -1.359375 "/></g></g><g style="fill:#6d6e71;fill-opacity:1;"><g transform="translate(129.814052, 154.508024)"><path style="stroke:none" d="M 2.65625 -0.890625 L 0.78125 -0.890625 L 0.375 0 L 0.015625 0 L 1.546875 -3.359375 L 1.890625 -3.359375 L 3.4375 0 L 3.0625 0 Z M 2.515625 -1.1875 L 1.71875 -2.984375 L 0.90625 -1.1875 Z M 2.515625 -1.1875 "/></g></g><g style="fill:#6d6e71;fill-opacity:1;"><g transform="translate(135.163537, 154.508024)"><path style="stroke:none" d="M 1.796875 -3.359375 C 2.234375 -3.359375 2.570312 -3.253906 2.8125 -3.046875 C 3.050781 -2.847656 3.171875 -2.566406 3.171875 -2.203125 C 3.171875 -1.847656 3.050781 -1.566406 2.8125 -1.359375 C 2.570312 -1.160156 2.234375 -1.0625 1.796875 -1.0625 L 0.90625 -1.0625 L 0.90625 0 L 0.546875 0 L 0.546875 -3.359375 Z M 1.796875 -1.375 C 2.128906 -1.375 2.382812 -1.445312 2.5625 -1.59375 C 2.738281 -1.738281 2.828125 -1.941406 2.828125 -2.203125 C 2.828125 -2.472656 2.738281 -2.679688 2.5625 -2.828125 C 2.382812 -2.972656 2.128906 -3.046875 1.796875 -3.046875 L 0.90625 -3.046875 L 0.90625 -1.375 Z M 1.796875 -1.375 "/></g></g><g style="fill:#6d6e71;fill-opacity:1;"><g transform="translate(140.517808, 154.508024)"><path style="stroke:none" d="M 1.703125 -1.15625 L 1.703125 0 L 1.34375 0 L 1.34375 -1.15625 L 0 -3.359375 L 0.390625 -3.359375 L 1.53125 -1.46875 L 2.6875 -3.359375 L 3.046875 -3.359375 Z M 1.703125 -1.15625 "/></g></g></g></svg>