<svg xmlns="http://www.w3.org/2000/svg" width="1280" height="720" version="1.2" viewBox="0 0 960 540"><defs><clipPath id="a"><path d="M.887 0h958.226v539H.887Zm0 0"/></clipPath><clipPath id="b"><path d="M95.68 265.52h717.683v47.293H95.68Zm0 0"/></clipPath></defs><g clip-path="url(#a)"><path d="M.887 0h958.226v539H.887Zm0 0" style="stroke:none;fill-rule:nonzero;fill:#fff;fill-opacity:1"/><path d="M.887 0h958.226v539H.887Zm0 0" style="stroke:none;fill-rule:nonzero;fill:#fff;fill-opacity:1"/></g><g style="fill:#28404e;fill-opacity:1"><path d="M13.203 0v-3.36c3.977-1.206 6.695-3.796 8.156-7.765 1.47-3.977 2.203-11.234 2.203-21.766v-115.5c0-10.707-.734-18.004-2.203-21.89-1.46-3.883-4.18-6.43-8.156-7.64v-3.36h41.953v3.36c-3.968 1.21-6.687 3.757-8.156 7.64-1.469 3.886-2.203 11.183-2.203 21.89v132.594c0 7.774 3.883 11.656 11.656 11.656h30.828c12.426 0 21.961-1.851 28.61-5.562 6.644-3.719 12.21-10.41 16.703-20.078l2.86.515L133.64 0Zm0 0" style="stroke:none" transform="translate(113.058 354.24)"/></g><g style="fill:#28404e;fill-opacity:1"><path d="M111.11 2.594c-19.856 0-37.079-3.535-51.672-10.61C44.843-15.098 33.53-25.332 25.5-38.719c-8.023-13.383-12.031-29.484-12.031-48.297 0-13.812 2.5-26.546 7.5-38.203 5.008-11.656 12.133-21.844 21.375-30.562 9.238-8.719 20.203-15.453 32.89-20.203 12.688-4.75 26.63-7.125 41.829-7.125 7.425 0 14.976.652 22.656 1.953 7.687 1.293 14.722 2.89 21.11 4.797 6.382 1.898 11.218 3.964 14.5 6.203l1.046 30.828-2.594.516c-5.011-11.739-13.344-21.235-25-28.485-11.648-7.258-25.156-10.89-40.531-10.89-13.637 0-25.98 3.027-37.031 9.078-11.055 6.043-19.82 15.023-26.297 26.937-6.469 11.906-9.703 26.668-9.703 44.281 0 12.086 1.77 23.825 5.312 35.22 3.54 11.398 8.848 21.624 15.922 30.687 7.082 9.062 15.8 16.23 26.156 21.5 10.364 5.261 22.282 7.89 35.75 7.89 13.977 0 26.192-3.625 36.641-10.875 10.445-7.25 18.176-17.867 23.188-31.86l2.843.267-4.14 33.671C170.848-8.109 162-4.957 150.344-1.937c-11.656 3.019-24.735 4.53-39.235 4.53Zm0 0" style="stroke:none" transform="translate(253.68 354.24)"/></g><g style="fill:#28404e;fill-opacity:1"><path d="M73.813 2.594C60.163 2.594 47.906.609 37.03-3.36c-10.875-3.977-19.336-8.125-25.375-12.438l-1.297-36 2.844-.516c3.457 8.981 7.988 17.313 13.594 25 5.613 7.68 12.738 13.805 21.375 18.375 8.633 4.575 18.906 6.86 30.812 6.86 6.907 0 13.29-1.422 19.157-4.266 5.875-2.851 10.582-6.867 14.125-12.047 3.539-5.175 5.312-11.218 5.312-18.125 0-6.562-1.73-12.257-5.187-17.093-3.45-4.832-7.938-9.063-13.47-12.688a117.644 117.644 0 0 0-17.484-9.453 767.099 767.099 0 0 0-17.468-7.39c-10.188-4.133-19.04-8.317-26.547-12.547-7.512-4.239-13.297-9.333-17.36-15.282-4.054-5.957-6.078-13.515-6.078-22.672 0-10.187 2.63-18.945 7.891-26.28 5.27-7.333 12.648-13.032 22.14-17.095 9.5-4.062 20.551-6.093 33.157-6.093 11.738 0 21.836 1.297 30.297 3.89 8.469 2.594 15.203 5.274 20.203 8.031l1.047 30.047-2.594.766c-4.836-11.219-11.871-20.453-21.11-27.703-9.242-7.25-21.28-10.875-36.124-10.875-6.907 0-13.34 1.34-19.297 4.016-5.961 2.68-10.711 6.523-14.25 11.53-3.532 5-5.297 11.216-5.297 18.641 0 6.043 1.46 11.309 4.39 15.797 2.938 4.492 6.82 8.375 11.657 11.656 4.832 3.274 10.097 6.165 15.797 8.672a670.265 670.265 0 0 0 16.843 7.125c9.664 3.793 18.727 7.852 27.188 12.172 8.457 4.313 15.316 9.578 20.578 15.797 5.27 6.211 7.906 14.234 7.906 24.078 0 10.711-2.937 19.992-8.812 27.844-5.867 7.855-13.418 13.855-22.656 18C93.707.52 84 2.594 73.811 2.594Zm0 0" style="stroke:none" transform="translate(445.578 354.24)"/></g><g style="fill:#28404e;fill-opacity:1"><path d="M92.453-150.734c-3.793-9.832-7.289-16.52-10.484-20.063-3.2-3.539-6.262-5.914-9.188-7.125v-3.36h39.625v3.36c-3.804 1.211-5.36 3.586-4.672 7.125.688 3.543 3.02 10.149 7 19.813l13.985 34.187 12.422-33.672c3.28-8.633 4.66-15.148 4.14-19.547-.511-4.406-2.93-7.039-7.25-7.906v-3.36h28.5v3.36c-3.625 1.211-7.078 3.625-10.36 7.25-3.28 3.625-6.733 10.36-10.358 20.203l-14.5 39.625 34.953 84.688 45.062-124.313c6.04-16.406 4.66-25.554-4.14-27.453v-3.36h29.265v3.36c-3.625 1.211-7.078 3.625-10.36 7.25-3.28 3.625-6.734 10.36-10.359 20.203L161.61 0h-7.25l-36-87.797L82.61 0h-7.25L18.125-150.469c-3.793-10.008-7.203-16.785-10.234-20.328-3.024-3.539-5.996-5.914-8.922-7.125v-3.36h40.14v3.36c-3.968 1.211-5.699 3.586-5.187 7.125.52 3.543 2.68 10.32 6.484 20.328L88.313-25.64 116.03-93.5Zm0 0" style="stroke:none" transform="translate(588.272 354.24)"/></g><g clip-path="url(#b)"><path d="M95.68 265.52h717.707v47.293H95.68Zm0 0" style="stroke:none;fill-rule:nonzero;fill:#fff;fill-opacity:1"/></g><g style="fill:#304945;fill-opacity:1"><path d="M10.438.36C8.594.39 6.987.101 5.625-.5 4.27-1.113 2.977-2.023 1.75-3.234a1.12 1.12 0 0 1-.313-.36.99.99 0 0 1-.125-.515c0-.29.114-.555.344-.797.227-.239.489-.36.782-.36.289 0 .554.121.796.36a9.706 9.706 0 0 0 3.22 2.328c1.194.531 2.487.797 3.874.797 1.164 0 2.203-.18 3.11-.547.906-.363 1.624-.883 2.156-1.563.531-.675.797-1.46.797-2.359 0-1.113-.305-2.016-.907-2.703-.605-.695-1.406-1.27-2.406-1.719a27.858 27.858 0 0 0-3.297-1.219 27.658 27.658 0 0 1-2.844-1c-.898-.375-1.699-.832-2.406-1.375a5.684 5.684 0 0 1-1.625-2.015c-.386-.801-.578-1.774-.578-2.922 0-1.281.336-2.414 1.016-3.406.676-1 1.64-1.782 2.89-2.344 1.25-.57 2.696-.86 4.344-.86 1.426 0 2.8.247 4.125.735 1.32.48 2.375 1.195 3.156 2.14.352.387.532.735.532 1.047 0 .243-.121.485-.36.735-.242.242-.508.36-.797.36a.87.87 0 0 1-.625-.25c-.406-.509-.93-.962-1.562-1.36a7.661 7.661 0 0 0-2.094-.938 8.568 8.568 0 0 0-2.375-.328c-1.137 0-2.164.18-3.078.531-.906.356-1.621.86-2.14 1.516-.524.648-.782 1.434-.782 2.36 0 1.011.29 1.843.875 2.5.582.656 1.344 1.199 2.281 1.624.946.43 1.957.82 3.032 1.172 1.039.293 2.039.625 3 1 .957.375 1.804.844 2.546 1.406a5.915 5.915 0 0 1 1.735 2.11c.426.844.64 1.914.64 3.203 0 1.23-.355 2.344-1.062 3.344-.7.992-1.664 1.777-2.89 2.36-1.22.581-2.653.882-4.297.905Zm0 0" style="stroke:none" transform="translate(113.498 301.414)"/></g><g style="fill:#304945;fill-opacity:1"><path d="M11.922-22.656 3.094-.688a1.34 1.34 0 0 1-.406.547.98.98 0 0 1-.579.172c-.343 0-.601-.086-.765-.265a1.189 1.189 0 0 1-.297-.672.89.89 0 0 1 .047-.438l9.594-23.484c.124-.27.273-.457.453-.563.187-.113.398-.172.64-.172.239 0 .446.07.625.204.188.136.328.312.422.53l9.563 23.376c.05.148.078.293.078.437 0 .336-.11.594-.328.782-.22.18-.477.265-.766.265-.242 0-.453-.062-.64-.187a1.26 1.26 0 0 1-.407-.531l-9.062-22.11ZM5.203-7.344l.906-2.14h11.266l.438 2.14Zm0 0" style="stroke:none" transform="translate(163.02 301.414)"/></g><g style="fill:#304945;fill-opacity:1"><path d="M4.516-25.453c.164 0 .336.039.515.11a.999.999 0 0 1 .453.359L15.531-9.922l-.984-.047 10.062-15.015c.27-.364.598-.52.985-.47a1.07 1.07 0 0 1 1.063 1.094v23.266c0 .293-.11.547-.329.766a1.085 1.085 0 0 1-.797.328c-.343 0-.625-.11-.843-.328a1.047 1.047 0 0 1-.329-.766V-22.14l.657.078L15.813-8.14a.796.796 0 0 1-.829.438.792.792 0 0 1-.5-.094.963.963 0 0 1-.375-.344L4.875-22.219l.688-.468v21.593c0 .293-.106.547-.313.766C5.04-.11 4.781 0 4.469 0a.982.982 0 0 1-.766-.328 1.138 1.138 0 0 1-.281-.766v-23.265c0-.29.098-.547.297-.766.207-.219.472-.328.797-.328Zm0 0" style="stroke:none" transform="translate(215.632 301.414)"/></g><g style="fill:#304945;fill-opacity:1"><path d="M11.922-22.656 3.094-.688a1.34 1.34 0 0 1-.406.547.98.98 0 0 1-.579.172c-.343 0-.601-.086-.765-.265a1.189 1.189 0 0 1-.297-.672.89.89 0 0 1 .047-.438l9.594-23.484c.124-.27.273-.457.453-.563.187-.113.398-.172.64-.172.239 0 .446.07.625.204.188.136.328.312.422.53l9.563 23.376c.05.148.078.293.078.437 0 .336-.11.594-.328.782-.22.18-.477.265-.766.265-.242 0-.453-.062-.64-.187a1.26 1.26 0 0 1-.407-.531l-9.062-22.11ZM5.203-7.344l.906-2.14h11.266l.438 2.14Zm0 0" style="stroke:none" transform="translate(274.787 301.414)"/></g><g style="fill:#304945;fill-opacity:1"><path d="M22.031-25.453c.313 0 .555.101.735.297.187.187.28.43.28.718v23.282c0 .355-.116.636-.343.843-.23.211-.492.313-.781.313-.149 0-.305-.031-.469-.094a.97.97 0 0 1-.406-.265L4.828-22.22l.625-.328V-.984a.963.963 0 0 1-.297.703.977.977 0 0 1-.718.281c-.313 0-.563-.094-.75-.281a.999.999 0 0 1-.266-.703V-24.36c0-.364.11-.633.328-.813.219-.187.457-.281.719-.281.144 0 .3.031.468.094a.782.782 0 0 1 .407.312L21.375-3.453l-.36.656v-21.64c0-.29.102-.532.313-.72.207-.195.442-.296.703-.296Zm0 0" style="stroke:none" transform="translate(327.399 301.414)"/></g><g style="fill:#304945;fill-opacity:1"><path d="M10.984 0c-.343 0-.62-.11-.828-.328a1.097 1.097 0 0 1-.297-.766V-24.25h2.25v23.156c0 .293-.109.547-.328.766a1.085 1.085 0 0 1-.797.328ZM2.328-23.375c-.293 0-.547-.094-.765-.281-.22-.196-.329-.457-.329-.782 0-.289.11-.53.329-.718.218-.196.472-.297.765-.297h17.313c.289 0 .539.101.75.297.218.187.328.445.328.765 0 .313-.11.563-.328.75-.211.18-.461.266-.75.266Zm0 0" style="stroke:none" transform="translate(382.955 301.414)"/></g><g style="fill:#304945;fill-opacity:1"><path d="M4.578-25.453c.29 0 .55.11.781.328.227.219.344.484.344.797v23.203a1.198 1.198 0 0 1-.375.797C5.098-.11 4.836 0 4.547 0c-.344 0-.621-.11-.828-.328a1.14 1.14 0 0 1-.297-.797v-23.203c0-.313.11-.578.328-.797.219-.219.492-.328.828-.328Zm17.063 0c.332 0 .601.11.812.328.207.219.313.484.313.797v23.203a1.319 1.319 0 0 1-.36.797c-.199.219-.468.328-.812.328-.313 0-.578-.11-.797-.328a1.085 1.085 0 0 1-.328-.797v-23.203c0-.313.113-.578.343-.797a1.15 1.15 0 0 1 .829-.328ZM4.406-14.078h17.266l-.031 2.11H4.25Zm0 0" style="stroke:none" transform="translate(434.004 301.414)"/></g><g style="fill:#304945;fill-opacity:1"><path d="M11.922-22.656 3.094-.688a1.34 1.34 0 0 1-.406.547.98.98 0 0 1-.579.172c-.343 0-.601-.086-.765-.265a1.189 1.189 0 0 1-.297-.672.89.89 0 0 1 .047-.438l9.594-23.484c.124-.27.273-.457.453-.563.187-.113.398-.172.64-.172.239 0 .446.07.625.204.188.136.328.312.422.53l9.563 23.376c.05.148.078.293.078.437 0 .336-.11.594-.328.782-.22.18-.477.265-.766.265-.242 0-.453-.062-.64-.187a1.26 1.26 0 0 1-.407-.531l-9.062-22.11ZM5.203-7.344l.906-2.14h11.266l.438 2.14Zm0 0" style="stroke:none" transform="translate(489.27 301.414)"/></g><g style="fill:#304945;fill-opacity:1"><path d="M4.516-25.453c.164 0 .336.039.515.11a.999.999 0 0 1 .453.359L15.531-9.922l-.984-.047 10.062-15.015c.27-.364.598-.52.985-.47a1.07 1.07 0 0 1 1.063 1.094v23.266c0 .293-.11.547-.329.766a1.085 1.085 0 0 1-.797.328c-.343 0-.625-.11-.843-.328a1.047 1.047 0 0 1-.329-.766V-22.14l.657.078L15.813-8.14a.796.796 0 0 1-.829.438.792.792 0 0 1-.5-.094.963.963 0 0 1-.375-.344L4.875-22.219l.688-.468v21.593c0 .293-.106.547-.313.766C5.04-.11 4.781 0 4.469 0a.982.982 0 0 1-.766-.328 1.138 1.138 0 0 1-.281-.766v-23.265c0-.29.098-.547.297-.766.207-.219.472-.328.797-.328Zm0 0" style="stroke:none" transform="translate(580.896 301.414)"/></g><g style="fill:#304945;fill-opacity:1"><path d="M5.703-1.125a1.198 1.198 0 0 1-.375.797C5.098-.11 4.836 0 4.547 0c-.344 0-.621-.11-.828-.328a1.14 1.14 0 0 1-.297-.797v-23.203c0-.313.11-.578.328-.797.219-.219.492-.328.828-.328.29 0 .55.11.781.328.227.219.344.484.344.797Zm0 0" style="stroke:none" transform="translate(640.052 301.414)"/></g><g style="fill:#304945;fill-opacity:1"><path d="M17.484-2.14c.29 0 .547.105.766.312.219.2.328.445.328.734 0 .313-.11.574-.328.782-.219.21-.477.312-.766.312H4.516c-.325 0-.59-.11-.797-.328a1.097 1.097 0 0 1-.297-.766v-23.265c0-.29.11-.547.328-.766.219-.219.492-.328.828-.328.29 0 .55.11.781.328.227.219.344.477.344.766v22.828l-.687-.61Zm0 0" style="stroke:none" transform="translate(678.23 301.414)"/></g><g style="fill:#304945;fill-opacity:1"><path d="M17.484-2.14c.29 0 .547.105.766.312.219.2.328.445.328.734 0 .313-.11.574-.328.782-.219.21-.477.312-.766.312H4.516c-.325 0-.59-.11-.797-.328a1.097 1.097 0 0 1-.297-.766v-23.265c0-.29.11-.547.328-.766.219-.219.492-.328.828-.328.29 0 .55.11.781.328.227.219.344.477.344.766v22.828l-.687-.61Zm0 0" style="stroke:none" transform="translate(726.661 301.414)"/></g><g style="fill:#304945;fill-opacity:1"><path d="M10.438.36C8.594.39 6.987.101 5.625-.5 4.27-1.113 2.977-2.023 1.75-3.234a1.12 1.12 0 0 1-.313-.36.99.99 0 0 1-.125-.515c0-.29.114-.555.344-.797.227-.239.489-.36.782-.36.289 0 .554.121.796.36a9.706 9.706 0 0 0 3.22 2.328c1.194.531 2.487.797 3.874.797 1.164 0 2.203-.18 3.11-.547.906-.363 1.624-.883 2.156-1.563.531-.675.797-1.46.797-2.359 0-1.113-.305-2.016-.907-2.703-.605-.695-1.406-1.27-2.406-1.719a27.858 27.858 0 0 0-3.297-1.219 27.658 27.658 0 0 1-2.844-1c-.898-.375-1.699-.832-2.406-1.375a5.684 5.684 0 0 1-1.625-2.015c-.386-.801-.578-1.774-.578-2.922 0-1.281.336-2.414 1.016-3.406.676-1 1.64-1.782 2.89-2.344 1.25-.57 2.696-.86 4.344-.86 1.426 0 2.8.247 4.125.735 1.32.48 2.375 1.195 3.156 2.14.352.387.532.735.532 1.047 0 .243-.121.485-.36.735-.242.242-.508.36-.797.36a.87.87 0 0 1-.625-.25c-.406-.509-.93-.962-1.562-1.36a7.661 7.661 0 0 0-2.094-.938 8.568 8.568 0 0 0-2.375-.328c-1.137 0-2.164.18-3.078.531-.906.356-1.621.86-2.14 1.516-.524.648-.782 1.434-.782 2.36 0 1.011.29 1.843.875 2.5.582.656 1.344 1.199 2.281 1.624.946.43 1.957.82 3.032 1.172 1.039.293 2.039.625 3 1 .957.375 1.804.844 2.546 1.406a5.915 5.915 0 0 1 1.735 2.11c.426.844.64 1.914.64 3.203 0 1.23-.355 2.344-1.062 3.344-.7.992-1.664 1.777-2.89 2.36-1.22.581-2.653.882-4.297.905Zm0 0" style="stroke:none" transform="translate(775.092 301.414)"/></g></svg>