<svg xmlns="http://www.w3.org/2000/svg" xmlns:xlink="http://www.w3.org/1999/xlink" width="300" zoomAndPan="magnify" viewBox="0 0 224.87999 225" height="300" preserveAspectRatio="xMidYMid meet" version="1.2"><defs><clipPath id="7683d0f76e"><path d="M 0 0.0585938 L 224.761719 0.0585938 L 224.761719 224.9375 L 0 224.9375 Z M 0 0.0585938 "/></clipPath><clipPath id="e6f3098098"><path d="M 27.847656 112.890625 L 201.09375 112.890625 L 201.09375 124.308594 L 27.847656 124.308594 Z M 27.847656 112.890625 "/></clipPath></defs><g id="0b8086caa3"><g clip-rule="nonzero" clip-path="url(#7683d0f76e)"><path style=" stroke:none;fill-rule:nonzero;fill:#ffffff;fill-opacity:1;" d="M 0 0.0585938 L 224.878906 0.0585938 L 224.878906 224.941406 L 0 224.941406 Z M 0 0.0585938 "/><path style=" stroke:none;fill-rule:nonzero;fill:#ffffff;fill-opacity:1;" d="M 0 0.0585938 L 224.878906 0.0585938 L 224.878906 224.941406 L 0 224.941406 Z M 0 0.0585938 "/></g><g style="fill:#28404e;fill-opacity:1;"><g transform="translate(25.613559, 135.235767)"><path style="stroke:none" d="M 3.1875 0 L 3.1875 -0.8125 C 4.144531 -1.101562 4.800781 -1.726562 5.15625 -2.6875 C 5.507812 -3.644531 5.6875 -5.394531 5.6875 -7.9375 L 5.6875 -35.828125 C 5.6875 -38.410156 5.507812 -40.171875 5.15625 -41.109375 C 4.800781 -42.046875 4.144531 -42.660156 3.1875 -42.953125 L 3.1875 -43.765625 L 13.3125 -43.765625 L 13.3125 -42.953125 C 12.351562 -42.660156 11.695312 -42.046875 11.34375 -41.109375 C 10.988281 -40.171875 10.8125 -38.410156 10.8125 -35.828125 L 10.8125 -3.8125 C 10.8125 -1.9375 11.75 -1 13.625 -1 L 21.0625 -1 C 24.0625 -1 26.363281 -1.445312 27.96875 -2.34375 C 29.570312 -3.238281 30.921875 -4.851562 32.015625 -7.1875 L 32.703125 -7.0625 L 32.265625 0 Z M 3.1875 0 "/></g></g><g style="fill:#28404e;fill-opacity:1;"><g transform="translate(59.559009, 135.235767)"><path style="stroke:none" d="M 26.8125 0.625 C 22.019531 0.625 17.863281 -0.226562 14.34375 -1.9375 C 10.820312 -3.644531 8.09375 -6.113281 6.15625 -9.34375 C 4.21875 -12.570312 3.25 -16.457031 3.25 -21 C 3.25 -24.332031 3.851562 -27.40625 5.0625 -30.21875 C 6.269531 -33.039062 7.988281 -35.503906 10.21875 -37.609375 C 12.445312 -39.710938 15.09375 -41.335938 18.15625 -42.484375 C 21.21875 -43.628906 24.582031 -44.203125 28.25 -44.203125 C 30.039062 -44.203125 31.863281 -44.046875 33.71875 -43.734375 C 35.582031 -43.421875 37.285156 -43.035156 38.828125 -42.578125 C 40.367188 -42.117188 41.535156 -41.617188 42.328125 -41.078125 L 42.578125 -33.640625 L 41.953125 -33.515625 C 40.742188 -36.347656 38.734375 -38.640625 35.921875 -40.390625 C 33.109375 -42.140625 29.84375 -43.015625 26.125 -43.015625 C 22.832031 -43.015625 19.851562 -42.285156 17.1875 -40.828125 C 14.519531 -39.367188 12.40625 -37.195312 10.84375 -34.3125 C 9.28125 -31.4375 8.5 -27.875 8.5 -23.625 C 8.5 -20.707031 8.925781 -17.875 9.78125 -15.125 C 10.632812 -12.375 11.914062 -9.90625 13.625 -7.71875 C 15.332031 -5.53125 17.4375 -3.800781 19.9375 -2.53125 C 22.4375 -1.257812 25.3125 -0.625 28.5625 -0.625 C 31.945312 -0.625 34.898438 -1.5 37.421875 -3.25 C 39.941406 -5 41.804688 -7.5625 43.015625 -10.9375 L 43.703125 -10.875 L 42.703125 -2.75 C 41.242188 -1.957031 39.109375 -1.195312 36.296875 -0.46875 C 33.484375 0.257812 30.320312 0.625 26.8125 0.625 Z M 26.8125 0.625 "/></g></g><g style="fill:#28404e;fill-opacity:1;"><g transform="translate(105.882359, 135.235767)"><path style="stroke:none" d="M 17.8125 0.625 C 14.519531 0.625 11.5625 0.144531 8.9375 -0.8125 C 6.3125 -1.769531 4.269531 -2.769531 2.8125 -3.8125 L 2.5 -12.5 L 3.1875 -12.625 C 4.019531 -10.457031 5.113281 -8.445312 6.46875 -6.59375 C 7.820312 -4.738281 9.539062 -3.257812 11.625 -2.15625 C 13.707031 -1.050781 16.1875 -0.5 19.0625 -0.5 C 20.726562 -0.5 22.269531 -0.84375 23.6875 -1.53125 C 25.101562 -2.21875 26.238281 -3.1875 27.09375 -4.4375 C 27.945312 -5.6875 28.375 -7.144531 28.375 -8.8125 C 28.375 -10.394531 27.957031 -11.769531 27.125 -12.9375 C 26.289062 -14.101562 25.207031 -15.125 23.875 -16 C 22.539062 -16.875 21.132812 -17.632812 19.65625 -18.28125 C 18.175781 -18.925781 16.769531 -19.519531 15.4375 -20.0625 C 12.976562 -21.0625 10.84375 -22.070312 9.03125 -23.09375 C 7.21875 -24.113281 5.820312 -25.34375 4.84375 -26.78125 C 3.863281 -28.21875 3.375 -30.046875 3.375 -32.265625 C 3.375 -34.722656 4.007812 -36.835938 5.28125 -38.609375 C 6.550781 -40.378906 8.332031 -41.753906 10.625 -42.734375 C 12.914062 -43.710938 15.582031 -44.203125 18.625 -44.203125 C 21.457031 -44.203125 23.894531 -43.890625 25.9375 -43.265625 C 27.976562 -42.640625 29.601562 -41.992188 30.8125 -41.328125 L 31.078125 -34.078125 L 30.4375 -33.890625 C 29.269531 -36.597656 27.570312 -38.828125 25.34375 -40.578125 C 23.113281 -42.328125 20.207031 -43.203125 16.625 -43.203125 C 14.957031 -43.203125 13.40625 -42.878906 11.96875 -42.234375 C 10.53125 -41.585938 9.382812 -40.660156 8.53125 -39.453125 C 7.675781 -38.242188 7.25 -36.742188 7.25 -34.953125 C 7.25 -33.492188 7.601562 -32.21875 8.3125 -31.125 C 9.019531 -30.039062 9.957031 -29.101562 11.125 -28.3125 C 12.289062 -27.519531 13.5625 -26.820312 14.9375 -26.21875 C 16.3125 -25.613281 17.664062 -25.039062 19 -24.5 C 21.332031 -23.582031 23.519531 -22.601562 25.5625 -21.5625 C 27.601562 -20.519531 29.257812 -19.25 30.53125 -17.75 C 31.8125 -16.25 32.453125 -14.3125 32.453125 -11.9375 C 32.453125 -9.351562 31.738281 -7.113281 30.3125 -5.21875 C 28.894531 -3.320312 27.070312 -1.875 24.84375 -0.875 C 22.613281 0.125 20.269531 0.625 17.8125 0.625 Z M 17.8125 0.625 "/></g></g><g style="fill:#28404e;fill-opacity:1;"><g transform="translate(140.327926, 135.235767)"><path style="stroke:none" d="M 22.3125 -36.390625 C 21.394531 -38.765625 20.550781 -40.378906 19.78125 -41.234375 C 19.007812 -42.085938 18.269531 -42.660156 17.5625 -42.953125 L 17.5625 -43.765625 L 27.125 -43.765625 L 27.125 -42.953125 C 26.207031 -42.660156 25.832031 -42.085938 26 -41.234375 C 26.164062 -40.378906 26.726562 -38.785156 27.6875 -36.453125 L 31.078125 -28.1875 L 34.078125 -36.328125 C 34.867188 -38.410156 35.203125 -39.984375 35.078125 -41.046875 C 34.953125 -42.109375 34.367188 -42.742188 33.328125 -42.953125 L 33.328125 -43.765625 L 40.203125 -43.765625 L 40.203125 -42.953125 C 39.328125 -42.660156 38.492188 -42.078125 37.703125 -41.203125 C 36.910156 -40.328125 36.078125 -38.703125 35.203125 -36.328125 L 31.703125 -26.75 L 40.140625 -6.3125 L 51.015625 -36.328125 C 52.472656 -40.285156 52.140625 -42.492188 50.015625 -42.953125 L 50.015625 -43.765625 L 57.078125 -43.765625 L 57.078125 -42.953125 C 56.203125 -42.660156 55.367188 -42.078125 54.578125 -41.203125 C 53.785156 -40.328125 52.953125 -38.703125 52.078125 -36.328125 L 39.015625 0 L 37.265625 0 L 28.5625 -21.1875 L 19.9375 0 L 18.1875 0 L 4.375 -36.328125 C 3.457031 -38.742188 2.632812 -40.378906 1.90625 -41.234375 C 1.175781 -42.085938 0.457031 -42.660156 -0.25 -42.953125 L -0.25 -43.765625 L 9.4375 -43.765625 L 9.4375 -42.953125 C 8.476562 -42.660156 8.0625 -42.085938 8.1875 -41.234375 C 8.3125 -40.378906 8.832031 -38.742188 9.75 -36.328125 L 21.3125 -6.1875 L 28 -22.5625 Z M 22.3125 -36.390625 "/></g></g><g clip-rule="nonzero" clip-path="url(#e6f3098098)"><path style=" stroke:none;fill-rule:nonzero;fill:#ffffff;fill-opacity:1;" d="M 27.847656 112.890625 L 201.097656 112.890625 L 201.097656 124.308594 L 27.847656 124.308594 Z M 27.847656 112.890625 "/></g><g style="fill:#304945;fill-opacity:1;"><g transform="translate(32.149442, 121.556599)"><path style="stroke:none" d="M 2.515625 0.09375 C 2.078125 0.09375 1.691406 0.0195312 1.359375 -0.125 C 1.035156 -0.269531 0.722656 -0.488281 0.421875 -0.78125 C 0.390625 -0.800781 0.363281 -0.828125 0.34375 -0.859375 C 0.320312 -0.898438 0.3125 -0.945312 0.3125 -1 C 0.3125 -1.0625 0.335938 -1.117188 0.390625 -1.171875 C 0.453125 -1.234375 0.519531 -1.265625 0.59375 -1.265625 C 0.65625 -1.265625 0.71875 -1.238281 0.78125 -1.1875 C 1.007812 -0.9375 1.269531 -0.75 1.5625 -0.625 C 1.851562 -0.5 2.164062 -0.4375 2.5 -0.4375 C 2.78125 -0.4375 3.03125 -0.476562 3.25 -0.5625 C 3.46875 -0.644531 3.640625 -0.769531 3.765625 -0.9375 C 3.890625 -1.101562 3.953125 -1.296875 3.953125 -1.515625 C 3.953125 -1.785156 3.878906 -2.003906 3.734375 -2.171875 C 3.585938 -2.335938 3.394531 -2.472656 3.15625 -2.578125 C 2.914062 -2.679688 2.648438 -2.78125 2.359375 -2.875 C 2.117188 -2.945312 1.890625 -3.023438 1.671875 -3.109375 C 1.460938 -3.203125 1.269531 -3.3125 1.09375 -3.4375 C 0.925781 -3.570312 0.796875 -3.734375 0.703125 -3.921875 C 0.609375 -4.117188 0.5625 -4.359375 0.5625 -4.640625 C 0.5625 -4.953125 0.640625 -5.226562 0.796875 -5.46875 C 0.960938 -5.707031 1.195312 -5.894531 1.5 -6.03125 C 1.800781 -6.164062 2.15625 -6.234375 2.5625 -6.234375 C 2.90625 -6.234375 3.234375 -6.175781 3.546875 -6.0625 C 3.867188 -5.945312 4.125 -5.773438 4.3125 -5.546875 C 4.394531 -5.453125 4.4375 -5.363281 4.4375 -5.28125 C 4.4375 -5.226562 4.40625 -5.171875 4.34375 -5.109375 C 4.289062 -5.046875 4.226562 -5.015625 4.15625 -5.015625 C 4.101562 -5.015625 4.054688 -5.035156 4.015625 -5.078125 C 3.910156 -5.203125 3.78125 -5.3125 3.625 -5.40625 C 3.476562 -5.507812 3.3125 -5.585938 3.125 -5.640625 C 2.945312 -5.691406 2.757812 -5.71875 2.5625 -5.71875 C 2.28125 -5.71875 2.03125 -5.675781 1.8125 -5.59375 C 1.59375 -5.507812 1.421875 -5.382812 1.296875 -5.21875 C 1.171875 -5.0625 1.109375 -4.875 1.109375 -4.65625 C 1.109375 -4.40625 1.175781 -4.203125 1.3125 -4.046875 C 1.457031 -3.890625 1.644531 -3.757812 1.875 -3.65625 C 2.101562 -3.550781 2.34375 -3.457031 2.59375 -3.375 C 2.851562 -3.300781 3.097656 -3.21875 3.328125 -3.125 C 3.554688 -3.039062 3.757812 -2.929688 3.9375 -2.796875 C 4.113281 -2.660156 4.253906 -2.488281 4.359375 -2.28125 C 4.460938 -2.070312 4.515625 -1.816406 4.515625 -1.515625 C 4.515625 -1.210938 4.425781 -0.941406 4.25 -0.703125 C 4.082031 -0.460938 3.851562 -0.269531 3.5625 -0.125 C 3.269531 0.0078125 2.921875 0.0820312 2.515625 0.09375 Z M 2.515625 0.09375 "/></g></g><g style="fill:#304945;fill-opacity:1;"><g transform="translate(44.103712, 121.556599)"><path style="stroke:none" d="M 2.875 -5.46875 L 0.75 -0.171875 C 0.726562 -0.109375 0.695312 -0.0625 0.65625 -0.03125 C 0.613281 0 0.566406 0.015625 0.515625 0.015625 C 0.429688 0.015625 0.367188 -0.00390625 0.328125 -0.046875 C 0.285156 -0.0976562 0.257812 -0.15625 0.25 -0.21875 C 0.25 -0.25 0.253906 -0.285156 0.265625 -0.328125 L 2.578125 -6 C 2.609375 -6.0625 2.644531 -6.101562 2.6875 -6.125 C 2.726562 -6.15625 2.78125 -6.171875 2.84375 -6.171875 C 2.90625 -6.171875 2.957031 -6.15625 3 -6.125 C 3.039062 -6.09375 3.070312 -6.050781 3.09375 -6 L 5.40625 -0.34375 C 5.414062 -0.3125 5.421875 -0.28125 5.421875 -0.25 C 5.421875 -0.164062 5.394531 -0.0976562 5.34375 -0.046875 C 5.289062 -0.00390625 5.226562 0.015625 5.15625 0.015625 C 5.101562 0.015625 5.050781 0 5 -0.03125 C 4.957031 -0.0703125 4.925781 -0.117188 4.90625 -0.171875 L 2.71875 -5.5 Z M 1.25 -1.78125 L 1.46875 -2.296875 L 4.203125 -2.296875 L 4.296875 -1.78125 Z M 1.25 -1.78125 "/></g></g><g style="fill:#304945;fill-opacity:1;"><g transform="translate(56.803942, 121.556599)"><path style="stroke:none" d="M 1.09375 -6.140625 C 1.132812 -6.140625 1.175781 -6.128906 1.21875 -6.109375 C 1.257812 -6.097656 1.296875 -6.070312 1.328125 -6.03125 L 3.75 -2.390625 L 3.515625 -2.40625 L 5.9375 -6.03125 C 6.007812 -6.125 6.09375 -6.160156 6.1875 -6.140625 C 6.25 -6.140625 6.304688 -6.113281 6.359375 -6.0625 C 6.410156 -6.019531 6.4375 -5.960938 6.4375 -5.890625 L 6.4375 -0.265625 C 6.4375 -0.191406 6.410156 -0.128906 6.359375 -0.078125 C 6.304688 -0.0234375 6.242188 0 6.171875 0 C 6.085938 0 6.019531 -0.0234375 5.96875 -0.078125 C 5.914062 -0.128906 5.890625 -0.191406 5.890625 -0.265625 L 5.890625 -5.34375 L 6.046875 -5.328125 L 3.8125 -1.96875 C 3.800781 -1.9375 3.773438 -1.910156 3.734375 -1.890625 C 3.703125 -1.867188 3.664062 -1.859375 3.625 -1.859375 C 3.582031 -1.859375 3.539062 -1.867188 3.5 -1.890625 C 3.457031 -1.910156 3.425781 -1.9375 3.40625 -1.96875 L 1.171875 -5.359375 L 1.34375 -5.484375 L 1.34375 -0.265625 C 1.34375 -0.191406 1.316406 -0.128906 1.265625 -0.078125 C 1.210938 -0.0234375 1.148438 0 1.078125 0 C 1.003906 0 0.941406 -0.0234375 0.890625 -0.078125 C 0.847656 -0.128906 0.828125 -0.191406 0.828125 -0.265625 L 0.828125 -5.890625 C 0.828125 -5.953125 0.847656 -6.007812 0.890625 -6.0625 C 0.941406 -6.113281 1.007812 -6.140625 1.09375 -6.140625 Z M 1.09375 -6.140625 "/></g></g><g style="fill:#304945;fill-opacity:1;"><g transform="translate(71.08385, 121.556599)"><path style="stroke:none" d="M 2.875 -5.46875 L 0.75 -0.171875 C 0.726562 -0.109375 0.695312 -0.0625 0.65625 -0.03125 C 0.613281 0 0.566406 0.015625 0.515625 0.015625 C 0.429688 0.015625 0.367188 -0.00390625 0.328125 -0.046875 C 0.285156 -0.0976562 0.257812 -0.15625 0.25 -0.21875 C 0.25 -0.25 0.253906 -0.285156 0.265625 -0.328125 L 2.578125 -6 C 2.609375 -6.0625 2.644531 -6.101562 2.6875 -6.125 C 2.726562 -6.15625 2.78125 -6.171875 2.84375 -6.171875 C 2.90625 -6.171875 2.957031 -6.15625 3 -6.125 C 3.039062 -6.09375 3.070312 -6.050781 3.09375 -6 L 5.40625 -0.34375 C 5.414062 -0.3125 5.421875 -0.28125 5.421875 -0.25 C 5.421875 -0.164062 5.394531 -0.0976562 5.34375 -0.046875 C 5.289062 -0.00390625 5.226562 0.015625 5.15625 0.015625 C 5.101562 0.015625 5.050781 0 5 -0.03125 C 4.957031 -0.0703125 4.925781 -0.117188 4.90625 -0.171875 L 2.71875 -5.5 Z M 1.25 -1.78125 L 1.46875 -2.296875 L 4.203125 -2.296875 L 4.296875 -1.78125 Z M 1.25 -1.78125 "/></g></g><g style="fill:#304945;fill-opacity:1;"><g transform="translate(83.784079, 121.556599)"><path style="stroke:none" d="M 5.328125 -6.140625 C 5.398438 -6.140625 5.457031 -6.113281 5.5 -6.0625 C 5.539062 -6.019531 5.5625 -5.96875 5.5625 -5.90625 L 5.5625 -0.28125 C 5.5625 -0.195312 5.535156 -0.128906 5.484375 -0.078125 C 5.429688 -0.0234375 5.367188 0 5.296875 0 C 5.265625 0 5.226562 -0.00390625 5.1875 -0.015625 C 5.144531 -0.0351562 5.109375 -0.0625 5.078125 -0.09375 L 1.171875 -5.359375 L 1.3125 -5.4375 L 1.3125 -0.234375 C 1.3125 -0.171875 1.285156 -0.113281 1.234375 -0.0625 C 1.191406 -0.0195312 1.140625 0 1.078125 0 C 0.992188 0 0.929688 -0.0195312 0.890625 -0.0625 C 0.847656 -0.113281 0.828125 -0.171875 0.828125 -0.234375 L 0.828125 -5.890625 C 0.828125 -5.972656 0.851562 -6.035156 0.90625 -6.078125 C 0.957031 -6.117188 1.015625 -6.140625 1.078125 -6.140625 C 1.109375 -6.140625 1.144531 -6.132812 1.1875 -6.125 C 1.226562 -6.113281 1.265625 -6.085938 1.296875 -6.046875 L 5.15625 -0.828125 L 5.078125 -0.671875 L 5.078125 -5.90625 C 5.078125 -5.96875 5.097656 -6.019531 5.140625 -6.0625 C 5.191406 -6.113281 5.253906 -6.140625 5.328125 -6.140625 Z M 5.328125 -6.140625 "/></g></g><g style="fill:#304945;fill-opacity:1;"><g transform="translate(97.195167, 121.556599)"><path style="stroke:none" d="M 2.65625 0 C 2.570312 0 2.503906 -0.0234375 2.453125 -0.078125 C 2.398438 -0.128906 2.375 -0.191406 2.375 -0.265625 L 2.375 -5.859375 L 2.921875 -5.859375 L 2.921875 -0.265625 C 2.921875 -0.191406 2.894531 -0.128906 2.84375 -0.078125 C 2.789062 -0.0234375 2.726562 0 2.65625 0 Z M 0.5625 -5.640625 C 0.488281 -5.640625 0.425781 -5.660156 0.375 -5.703125 C 0.320312 -5.753906 0.296875 -5.820312 0.296875 -5.90625 C 0.296875 -5.96875 0.320312 -6.019531 0.375 -6.0625 C 0.425781 -6.113281 0.488281 -6.140625 0.5625 -6.140625 L 4.734375 -6.140625 C 4.804688 -6.140625 4.867188 -6.113281 4.921875 -6.0625 C 4.972656 -6.019531 5 -5.960938 5 -5.890625 C 5 -5.816406 4.972656 -5.753906 4.921875 -5.703125 C 4.867188 -5.660156 4.804688 -5.640625 4.734375 -5.640625 Z M 0.5625 -5.640625 "/></g></g><g style="fill:#304945;fill-opacity:1;"><g transform="translate(109.518029, 121.556599)"><path style="stroke:none" d="M 1.109375 -6.140625 C 1.179688 -6.140625 1.242188 -6.113281 1.296875 -6.0625 C 1.347656 -6.007812 1.375 -5.945312 1.375 -5.875 L 1.375 -0.265625 C 1.375 -0.191406 1.34375 -0.128906 1.28125 -0.078125 C 1.226562 -0.0234375 1.164062 0 1.09375 0 C 1.007812 0 0.941406 -0.0234375 0.890625 -0.078125 C 0.847656 -0.128906 0.828125 -0.191406 0.828125 -0.265625 L 0.828125 -5.875 C 0.828125 -5.945312 0.851562 -6.007812 0.90625 -6.0625 C 0.957031 -6.113281 1.023438 -6.140625 1.109375 -6.140625 Z M 5.21875 -6.140625 C 5.300781 -6.140625 5.367188 -6.113281 5.421875 -6.0625 C 5.472656 -6.007812 5.5 -5.945312 5.5 -5.875 L 5.5 -0.265625 C 5.488281 -0.191406 5.457031 -0.128906 5.40625 -0.078125 C 5.363281 -0.0234375 5.300781 0 5.21875 0 C 5.144531 0 5.078125 -0.0234375 5.015625 -0.078125 C 4.960938 -0.128906 4.9375 -0.191406 4.9375 -0.265625 L 4.9375 -5.875 C 4.9375 -5.945312 4.960938 -6.007812 5.015625 -6.0625 C 5.078125 -6.113281 5.144531 -6.140625 5.21875 -6.140625 Z M 1.0625 -3.390625 L 5.234375 -3.390625 L 5.21875 -2.890625 L 1.03125 -2.890625 Z M 1.0625 -3.390625 "/></g></g><g style="fill:#304945;fill-opacity:1;"><g transform="translate(122.858916, 121.556599)"><path style="stroke:none" d="M 2.875 -5.46875 L 0.75 -0.171875 C 0.726562 -0.109375 0.695312 -0.0625 0.65625 -0.03125 C 0.613281 0 0.566406 0.015625 0.515625 0.015625 C 0.429688 0.015625 0.367188 -0.00390625 0.328125 -0.046875 C 0.285156 -0.0976562 0.257812 -0.15625 0.25 -0.21875 C 0.25 -0.25 0.253906 -0.285156 0.265625 -0.328125 L 2.578125 -6 C 2.609375 -6.0625 2.644531 -6.101562 2.6875 -6.125 C 2.726562 -6.15625 2.78125 -6.171875 2.84375 -6.171875 C 2.90625 -6.171875 2.957031 -6.15625 3 -6.125 C 3.039062 -6.09375 3.070312 -6.050781 3.09375 -6 L 5.40625 -0.34375 C 5.414062 -0.3125 5.421875 -0.28125 5.421875 -0.25 C 5.421875 -0.164062 5.394531 -0.0976562 5.34375 -0.046875 C 5.289062 -0.00390625 5.226562 0.015625 5.15625 0.015625 C 5.101562 0.015625 5.050781 0 5 -0.03125 C 4.957031 -0.0703125 4.925781 -0.117188 4.90625 -0.171875 L 2.71875 -5.5 Z M 1.25 -1.78125 L 1.46875 -2.296875 L 4.203125 -2.296875 L 4.296875 -1.78125 Z M 1.25 -1.78125 "/></g></g><g style="fill:#304945;fill-opacity:1;"><g transform="translate(135.55914, 121.556599)"><path style="stroke:none" d=""/></g></g><g style="fill:#304945;fill-opacity:1;"><g transform="translate(144.977148, 121.556599)"><path style="stroke:none" d="M 1.09375 -6.140625 C 1.132812 -6.140625 1.175781 -6.128906 1.21875 -6.109375 C 1.257812 -6.097656 1.296875 -6.070312 1.328125 -6.03125 L 3.75 -2.390625 L 3.515625 -2.40625 L 5.9375 -6.03125 C 6.007812 -6.125 6.09375 -6.160156 6.1875 -6.140625 C 6.25 -6.140625 6.304688 -6.113281 6.359375 -6.0625 C 6.410156 -6.019531 6.4375 -5.960938 6.4375 -5.890625 L 6.4375 -0.265625 C 6.4375 -0.191406 6.410156 -0.128906 6.359375 -0.078125 C 6.304688 -0.0234375 6.242188 0 6.171875 0 C 6.085938 0 6.019531 -0.0234375 5.96875 -0.078125 C 5.914062 -0.128906 5.890625 -0.191406 5.890625 -0.265625 L 5.890625 -5.34375 L 6.046875 -5.328125 L 3.8125 -1.96875 C 3.800781 -1.9375 3.773438 -1.910156 3.734375 -1.890625 C 3.703125 -1.867188 3.664062 -1.859375 3.625 -1.859375 C 3.582031 -1.859375 3.539062 -1.867188 3.5 -1.890625 C 3.457031 -1.910156 3.425781 -1.9375 3.40625 -1.96875 L 1.171875 -5.359375 L 1.34375 -5.484375 L 1.34375 -0.265625 C 1.34375 -0.191406 1.316406 -0.128906 1.265625 -0.078125 C 1.210938 -0.0234375 1.148438 0 1.078125 0 C 1.003906 0 0.941406 -0.0234375 0.890625 -0.078125 C 0.847656 -0.128906 0.828125 -0.191406 0.828125 -0.265625 L 0.828125 -5.890625 C 0.828125 -5.953125 0.847656 -6.007812 0.890625 -6.0625 C 0.941406 -6.113281 1.007812 -6.140625 1.09375 -6.140625 Z M 1.09375 -6.140625 "/></g></g><g style="fill:#304945;fill-opacity:1;"><g transform="translate(159.257056, 121.556599)"><path style="stroke:none" d="M 1.375 -0.265625 C 1.375 -0.191406 1.34375 -0.128906 1.28125 -0.078125 C 1.226562 -0.0234375 1.164062 0 1.09375 0 C 1.007812 0 0.941406 -0.0234375 0.890625 -0.078125 C 0.847656 -0.128906 0.828125 -0.191406 0.828125 -0.265625 L 0.828125 -5.875 C 0.828125 -5.945312 0.851562 -6.007812 0.90625 -6.0625 C 0.957031 -6.113281 1.023438 -6.140625 1.109375 -6.140625 C 1.179688 -6.140625 1.242188 -6.113281 1.296875 -6.0625 C 1.347656 -6.007812 1.375 -5.945312 1.375 -5.875 Z M 1.375 -0.265625 "/></g></g><g style="fill:#304945;fill-opacity:1;"><g transform="translate(168.473226, 121.556599)"><path style="stroke:none" d="M 4.21875 -0.515625 C 4.289062 -0.515625 4.351562 -0.488281 4.40625 -0.4375 C 4.457031 -0.394531 4.484375 -0.335938 4.484375 -0.265625 C 4.484375 -0.191406 4.457031 -0.128906 4.40625 -0.078125 C 4.351562 -0.0234375 4.289062 0 4.21875 0 L 1.09375 0 C 1.007812 0 0.941406 -0.0234375 0.890625 -0.078125 C 0.847656 -0.128906 0.828125 -0.191406 0.828125 -0.265625 L 0.828125 -5.890625 C 0.828125 -5.953125 0.851562 -6.007812 0.90625 -6.0625 C 0.957031 -6.113281 1.023438 -6.140625 1.109375 -6.140625 C 1.179688 -6.140625 1.242188 -6.113281 1.296875 -6.0625 C 1.347656 -6.007812 1.375 -5.953125 1.375 -5.890625 L 1.375 -0.375 L 1.21875 -0.515625 Z M 4.21875 -0.515625 "/></g></g><g style="fill:#304945;fill-opacity:1;"><g transform="translate(180.164207, 121.556599)"><path style="stroke:none" d="M 4.21875 -0.515625 C 4.289062 -0.515625 4.351562 -0.488281 4.40625 -0.4375 C 4.457031 -0.394531 4.484375 -0.335938 4.484375 -0.265625 C 4.484375 -0.191406 4.457031 -0.128906 4.40625 -0.078125 C 4.351562 -0.0234375 4.289062 0 4.21875 0 L 1.09375 0 C 1.007812 0 0.941406 -0.0234375 0.890625 -0.078125 C 0.847656 -0.128906 0.828125 -0.191406 0.828125 -0.265625 L 0.828125 -5.890625 C 0.828125 -5.953125 0.851562 -6.007812 0.90625 -6.0625 C 0.957031 -6.113281 1.023438 -6.140625 1.109375 -6.140625 C 1.179688 -6.140625 1.242188 -6.113281 1.296875 -6.0625 C 1.347656 -6.007812 1.375 -5.953125 1.375 -5.890625 L 1.375 -0.375 L 1.21875 -0.515625 Z M 4.21875 -0.515625 "/></g></g><g style="fill:#304945;fill-opacity:1;"><g transform="translate(191.855209, 121.556599)"><path style="stroke:none" d="M 2.515625 0.09375 C 2.078125 0.09375 1.691406 0.0195312 1.359375 -0.125 C 1.035156 -0.269531 0.722656 -0.488281 0.421875 -0.78125 C 0.390625 -0.800781 0.363281 -0.828125 0.34375 -0.859375 C 0.320312 -0.898438 0.3125 -0.945312 0.3125 -1 C 0.3125 -1.0625 0.335938 -1.117188 0.390625 -1.171875 C 0.453125 -1.234375 0.519531 -1.265625 0.59375 -1.265625 C 0.65625 -1.265625 0.71875 -1.238281 0.78125 -1.1875 C 1.007812 -0.9375 1.269531 -0.75 1.5625 -0.625 C 1.851562 -0.5 2.164062 -0.4375 2.5 -0.4375 C 2.78125 -0.4375 3.03125 -0.476562 3.25 -0.5625 C 3.46875 -0.644531 3.640625 -0.769531 3.765625 -0.9375 C 3.890625 -1.101562 3.953125 -1.296875 3.953125 -1.515625 C 3.953125 -1.785156 3.878906 -2.003906 3.734375 -2.171875 C 3.585938 -2.335938 3.394531 -2.472656 3.15625 -2.578125 C 2.914062 -2.679688 2.648438 -2.78125 2.359375 -2.875 C 2.117188 -2.945312 1.890625 -3.023438 1.671875 -3.109375 C 1.460938 -3.203125 1.269531 -3.3125 1.09375 -3.4375 C 0.925781 -3.570312 0.796875 -3.734375 0.703125 -3.921875 C 0.609375 -4.117188 0.5625 -4.359375 0.5625 -4.640625 C 0.5625 -4.953125 0.640625 -5.226562 0.796875 -5.46875 C 0.960938 -5.707031 1.195312 -5.894531 1.5 -6.03125 C 1.800781 -6.164062 2.15625 -6.234375 2.5625 -6.234375 C 2.90625 -6.234375 3.234375 -6.175781 3.546875 -6.0625 C 3.867188 -5.945312 4.125 -5.773438 4.3125 -5.546875 C 4.394531 -5.453125 4.4375 -5.363281 4.4375 -5.28125 C 4.4375 -5.226562 4.40625 -5.171875 4.34375 -5.109375 C 4.289062 -5.046875 4.226562 -5.015625 4.15625 -5.015625 C 4.101562 -5.015625 4.054688 -5.035156 4.015625 -5.078125 C 3.910156 -5.203125 3.78125 -5.3125 3.625 -5.40625 C 3.476562 -5.507812 3.3125 -5.585938 3.125 -5.640625 C 2.945312 -5.691406 2.757812 -5.71875 2.5625 -5.71875 C 2.28125 -5.71875 2.03125 -5.675781 1.8125 -5.59375 C 1.59375 -5.507812 1.421875 -5.382812 1.296875 -5.21875 C 1.171875 -5.0625 1.109375 -4.875 1.109375 -4.65625 C 1.109375 -4.40625 1.175781 -4.203125 1.3125 -4.046875 C 1.457031 -3.890625 1.644531 -3.757812 1.875 -3.65625 C 2.101562 -3.550781 2.34375 -3.457031 2.59375 -3.375 C 2.851562 -3.300781 3.097656 -3.21875 3.328125 -3.125 C 3.554688 -3.039062 3.757812 -2.929688 3.9375 -2.796875 C 4.113281 -2.660156 4.253906 -2.488281 4.359375 -2.28125 C 4.460938 -2.070312 4.515625 -1.816406 4.515625 -1.515625 C 4.515625 -1.210938 4.425781 -0.941406 4.25 -0.703125 C 4.082031 -0.460938 3.851562 -0.269531 3.5625 -0.125 C 3.269531 0.0078125 2.921875 0.0820312 2.515625 0.09375 Z M 2.515625 0.09375 "/></g></g></g></svg>